G04*
G04 #@! TF.GenerationSoftware,Altium Limited,Altium Designer,22.9.1 (49)*
G04*
G04 Layer_Color=16711935*
%FSLAX25Y25*%
%MOIN*%
G70*
G04*
G04 #@! TF.SameCoordinates,75241AAF-32B0-4302-B227-1967B964D7D5*
G04*
G04*
G04 #@! TF.FilePolarity,Positive*
G04*
G01*
G75*
%ADD10C,0.00787*%
%ADD46C,0.00394*%
D10*
X36835Y174500D02*
X36047D01*
X36835D01*
X25394Y83941D02*
X24606D01*
X25394D01*
X199394Y118941D02*
X198606D01*
X199394D01*
X175394D02*
X174606D01*
X175394D01*
X199394Y79441D02*
X198606D01*
X199394D01*
Y29441D02*
X198606D01*
X199394D01*
X207453Y183000D02*
X206665D01*
X207453D01*
D46*
X78020Y84299D02*
X78283Y83315D01*
X79004Y82594D01*
X79988Y82331D01*
X92980Y121701D02*
X92717Y122685D01*
X91996Y123406D01*
X91012Y123669D01*
Y82331D02*
X91996Y82594D01*
X92717Y83315D01*
X92980Y84299D01*
X79988Y123669D02*
X79004Y123406D01*
X78283Y122685D01*
X78020Y121701D01*
X78905Y125343D02*
X77902Y125183D01*
X76996Y124722D01*
X76278Y124004D01*
X75816Y123098D01*
X75657Y122095D01*
X95342Y122095D02*
X95184Y123098D01*
X94722Y124004D01*
X94004Y124722D01*
X93098Y125184D01*
X92094Y125343D01*
X92094Y80658D02*
X93098Y80816D01*
X94004Y81278D01*
X94722Y81996D01*
X95184Y82902D01*
X95342Y83906D01*
X75657D02*
X75816Y82902D01*
X76278Y81996D01*
X76996Y81278D01*
X77902Y80816D01*
X78905Y80658D01*
X116839Y166445D02*
X116575Y167429D01*
X115854Y168150D01*
X114870Y168413D01*
X113886Y168150D01*
X113165Y167429D01*
X112902Y166445D01*
X113165Y165461D01*
X113886Y164740D01*
X114870Y164476D01*
X115854Y164740D01*
X116575Y165461D01*
X116839Y166445D01*
X39000Y169500D02*
Y189500D01*
X69000D01*
Y169500D02*
Y189500D01*
X39000Y169500D02*
X69000D01*
X39000D02*
Y189500D01*
X69000D01*
Y169500D02*
Y189500D01*
X20000Y86500D02*
X30000D01*
X20000D02*
Y116500D01*
X30000D01*
Y86500D02*
Y116500D01*
X20000Y86500D02*
X30000D01*
X20000D02*
Y116500D01*
X30000D01*
X61662Y85315D02*
X61677Y85330D01*
Y85315D02*
Y124685D01*
X46323Y85315D02*
X61662D01*
X46323D02*
Y124685D01*
X61677D01*
X75488Y36504D02*
Y64496D01*
X91512Y36504D02*
Y64496D01*
X75488Y36504D02*
X91512D01*
X75488Y64496D02*
X91512D01*
X78020Y84299D02*
Y121701D01*
X79988Y82331D02*
X91012D01*
X79988Y123669D02*
X91012D01*
X92980Y84299D02*
Y121701D01*
X78906Y80657D02*
X92094D01*
X75657Y83906D02*
Y122095D01*
X95343Y83906D02*
Y122094D01*
X78906Y125343D02*
X92095D01*
X76988Y140504D02*
Y168496D01*
X93012Y140504D02*
Y168496D01*
X76988Y140504D02*
X93012D01*
X76988Y168496D02*
X93012D01*
X111327Y31012D02*
X139673D01*
X111327Y169988D02*
X139673D01*
Y31012D02*
Y169988D01*
X111327Y31012D02*
Y169988D01*
X21343Y33421D02*
Y73579D01*
X16028D02*
X34532D01*
X16028Y33421D02*
X34532D01*
X16028D02*
Y73579D01*
X34532Y33421D02*
Y73579D01*
X33012Y127004D02*
Y154996D01*
X16988Y127004D02*
Y154996D01*
X33012D01*
X16988Y127004D02*
X33012D01*
X194000Y121500D02*
X204000D01*
X194000D02*
Y161500D01*
X204000D01*
Y121500D02*
Y161500D01*
X194000Y121500D02*
X204000D01*
X194000D02*
Y161500D01*
X204000D01*
X170000Y121500D02*
X180000D01*
X170000D02*
Y161500D01*
X180000D01*
Y121500D02*
Y161500D01*
X170000Y121500D02*
X180000D01*
X170000D02*
Y161500D01*
X180000D01*
X194000Y82000D02*
X204000D01*
X194000D02*
Y112000D01*
X204000D01*
Y82000D02*
Y112000D01*
X194000Y82000D02*
X204000D01*
X194000D02*
Y112000D01*
X204000D01*
X194000Y32000D02*
X204000D01*
X194000D02*
Y72000D01*
X204000D01*
Y32000D02*
Y72000D01*
X194000Y32000D02*
X204000D01*
X194000D02*
Y72000D01*
X204000D01*
X204500Y178000D02*
Y188000D01*
X154500Y178000D02*
X204500D01*
X154500D02*
Y188000D01*
X204500D01*
Y178000D02*
Y188000D01*
X154500Y178000D02*
X204500D01*
X154500D02*
Y188000D01*
M02*
