G04*
G04 #@! TF.GenerationSoftware,Altium Limited,Altium Designer,22.9.1 (49)*
G04*
G04 Layer_Physical_Order=1*
G04 Layer_Color=255*
%FSLAX25Y25*%
%MOIN*%
G70*
G04*
G04 #@! TF.SameCoordinates,75241AAF-32B0-4302-B227-1967B964D7D5*
G04*
G04*
G04 #@! TF.FilePolarity,Positive*
G04*
G01*
G75*
%ADD31C,0.01500*%
%ADD32R,0.05394X0.05394*%
%ADD33C,0.05394*%
%ADD34R,0.05394X0.05394*%
%ADD35R,0.06299X0.06299*%
%ADD36C,0.06299*%
%ADD37R,0.05118X0.05118*%
%ADD38C,0.05118*%
%ADD39R,0.04724X0.04724*%
%ADD40C,0.04724*%
%ADD41C,0.05906*%
%ADD42R,0.05906X0.05906*%
%ADD43R,0.06299X0.06299*%
%ADD44C,0.06378*%
%ADD45C,0.05000*%
D31*
X199000Y182500D02*
X199500Y183000D01*
X199000Y156500D02*
Y182500D01*
X140500Y85500D02*
Y95500D01*
X199000Y67000D02*
Y87000D01*
Y57000D02*
X203300Y61300D01*
Y102700D01*
X199000Y107000D02*
X203300Y102700D01*
X25500Y175000D02*
X33900Y166600D01*
Y50900D02*
Y166600D01*
X26500Y43500D02*
X33900Y50900D01*
X25000Y131000D02*
X29200Y135200D01*
Y162700D01*
X20700Y171200D02*
X29200Y162700D01*
X20700Y171200D02*
Y180200D01*
X25500Y185000D01*
X20700Y107200D02*
X25000Y111500D01*
X20700Y69300D02*
Y107200D01*
Y69300D02*
X26500Y63500D01*
X25000Y91500D02*
X31547Y98047D01*
Y124453D01*
X25000Y131000D02*
X31547Y124453D01*
X83500Y40500D02*
X91500Y32500D01*
Y16800D02*
Y32500D01*
Y16800D02*
X93100Y15200D01*
X101700D01*
X106500Y20000D01*
X175000Y136500D02*
X179300Y132200D01*
Y113700D02*
Y132200D01*
X171200Y105600D02*
X179300Y113700D01*
X171200Y95300D02*
Y105600D01*
Y95300D02*
X176000Y90500D01*
X179500Y151700D02*
Y183000D01*
Y151700D02*
X188483Y142717D01*
Y137017D02*
Y142717D01*
Y137017D02*
X199000Y126500D01*
X85500Y112606D02*
X97000Y101106D01*
Y79200D02*
Y101106D01*
Y79200D02*
X100700Y75500D01*
X110500D01*
X83500Y183000D02*
X95200Y194700D01*
X148500D01*
X152000Y191200D01*
Y57000D02*
Y191200D01*
X140500Y45500D02*
X152000Y57000D01*
X102200Y155500D02*
X110500D01*
X88900Y168800D02*
X102200Y155500D01*
X75400Y168800D02*
X88900D01*
X72200Y165600D02*
X75400Y168800D01*
X72200Y65700D02*
Y165600D01*
X26500Y20000D02*
X72200Y65700D01*
X199000Y107000D02*
X203300Y111300D01*
Y152200D01*
X199000Y156500D02*
X203300Y152200D01*
X20800Y115700D02*
X25000Y111500D01*
X20800Y115700D02*
Y146800D01*
X25000Y151000D01*
X54000Y134528D02*
X64000Y144528D01*
Y174500D01*
X48300Y178800D02*
X54000Y184500D01*
X48300Y61800D02*
Y178800D01*
X87000Y177900D02*
X88600Y176300D01*
X106800D01*
X113500Y183000D01*
X101600Y80900D02*
Y148000D01*
X104500Y150900D01*
X113200D01*
X115100Y152800D01*
Y157800D01*
X112800Y160100D02*
X115100Y157800D01*
X104800Y160100D02*
X112800D01*
X74100Y177900D02*
X87000D01*
X72500Y179500D02*
X74100Y177900D01*
X59000Y179500D02*
X72500D01*
X54000Y174500D02*
X59000Y179500D01*
X133500Y72500D02*
X140500Y65500D01*
X133500Y72500D02*
Y183000D01*
X83500Y60500D02*
X85500Y62500D01*
Y93394D01*
X80400Y117706D02*
X85500Y112606D01*
X80400Y117706D02*
Y159900D01*
X85000Y164500D01*
X189500Y156000D02*
Y183000D01*
Y156000D02*
X199000Y146500D01*
X176000Y20500D02*
X180800Y25300D01*
Y51200D01*
X176000Y56000D02*
X180800Y51200D01*
X123500Y108500D02*
Y183000D01*
X110500Y95500D02*
X123500Y108500D01*
X25000Y91500D02*
X31600Y84900D01*
Y58600D02*
Y84900D01*
X26500Y53500D02*
X31600Y58600D01*
X110500Y45500D02*
X121500Y34500D01*
Y16700D02*
Y34500D01*
Y16700D02*
X124000Y14200D01*
X162400D01*
X166400Y18200D01*
Y69400D01*
X182200Y85200D01*
Y145700D01*
X175000Y152900D02*
X182200Y145700D01*
X175000Y152900D02*
Y156500D01*
X131000Y31900D02*
X132000Y30900D01*
X154100D01*
X157600Y34400D01*
Y129100D01*
X175000Y146500D01*
X105900Y130900D02*
X110500Y135500D01*
X105900Y93000D02*
Y130900D01*
Y93000D02*
X108000Y90900D01*
X113000D01*
X115100Y88800D01*
Y72800D02*
Y88800D01*
X112800Y70500D02*
X115100Y72800D01*
X102500Y70500D02*
X112800D01*
X88300Y56300D02*
X102500Y70500D01*
X76300Y56300D02*
X88300D01*
X46500Y26500D02*
X76300Y56300D01*
X46500Y20000D02*
Y26500D01*
X96500Y20000D02*
Y44700D01*
X102100Y50300D01*
X141800D01*
X147303Y55803D01*
Y140597D01*
X144800Y143100D02*
X147303Y140597D01*
X142900Y143100D02*
X144800D01*
X140500Y145500D02*
X142900Y143100D01*
X135900Y130100D02*
X140500Y125500D01*
X135900Y130100D02*
Y170000D01*
X138239Y172339D01*
Y186400D01*
X136900Y187739D02*
X138239Y186400D01*
X130400Y187739D02*
X136900D01*
X128761Y186100D02*
X130400Y187739D01*
X128761Y76061D02*
Y186100D01*
X113697Y60997D02*
X128761Y76061D01*
X99797Y60997D02*
X113697D01*
X92000Y53200D02*
X99797Y60997D01*
X82400Y53200D02*
X92000D01*
X76500Y47300D02*
X82400Y53200D01*
X76500Y20000D02*
Y47300D01*
X161700Y30700D02*
Y117300D01*
X156000Y25000D02*
X161700Y30700D01*
X131500Y25000D02*
X156000D01*
X126500Y20000D02*
X131500Y25000D01*
X88600Y176300D02*
X104800Y160100D01*
D32*
X44000Y174500D02*
D03*
X199500Y183000D02*
D03*
D33*
X44000Y184500D02*
D03*
X54000Y174500D02*
D03*
Y184500D02*
D03*
X64000Y174500D02*
D03*
Y184500D02*
D03*
X25000Y101500D02*
D03*
Y111500D02*
D03*
X199000Y136500D02*
D03*
Y146500D02*
D03*
Y156500D02*
D03*
X175000Y136500D02*
D03*
Y146500D02*
D03*
Y156500D02*
D03*
X199000Y97000D02*
D03*
Y107000D02*
D03*
Y47000D02*
D03*
Y57000D02*
D03*
Y67000D02*
D03*
X189500Y183000D02*
D03*
X179500D02*
D03*
X169500D02*
D03*
X159500D02*
D03*
D34*
X25000Y91500D02*
D03*
X199000Y126500D02*
D03*
X175000D02*
D03*
X199000Y87000D02*
D03*
Y37000D02*
D03*
D35*
X54000Y134528D02*
D03*
D36*
Y75472D02*
D03*
X26500Y63500D02*
D03*
Y53500D02*
D03*
D37*
X83500Y40500D02*
D03*
X85000Y144500D02*
D03*
X25000Y151000D02*
D03*
D38*
X83500Y60500D02*
D03*
X85000Y164500D02*
D03*
X25000Y131000D02*
D03*
D39*
X85500Y93394D02*
D03*
D40*
Y103000D02*
D03*
Y112606D02*
D03*
D41*
X140500Y35500D02*
D03*
Y45500D02*
D03*
Y55500D02*
D03*
Y65500D02*
D03*
Y75500D02*
D03*
Y85500D02*
D03*
Y95500D02*
D03*
Y105500D02*
D03*
Y115500D02*
D03*
Y125500D02*
D03*
Y135500D02*
D03*
Y145500D02*
D03*
Y155500D02*
D03*
Y165500D02*
D03*
X110500Y35500D02*
D03*
Y45500D02*
D03*
Y55500D02*
D03*
Y65500D02*
D03*
Y75500D02*
D03*
Y85500D02*
D03*
Y95500D02*
D03*
Y105500D02*
D03*
Y115500D02*
D03*
Y125500D02*
D03*
Y135500D02*
D03*
Y145500D02*
D03*
Y155500D02*
D03*
D42*
Y165500D02*
D03*
D43*
X26500Y43500D02*
D03*
D44*
X25500Y185000D02*
D03*
Y175000D02*
D03*
X83500Y183000D02*
D03*
X93500D02*
D03*
X103500D02*
D03*
X113500D02*
D03*
X123500D02*
D03*
X133500D02*
D03*
X176000Y56000D02*
D03*
Y66000D02*
D03*
Y20500D02*
D03*
Y30500D02*
D03*
X26500Y20000D02*
D03*
X36500D02*
D03*
X46500D02*
D03*
X56500D02*
D03*
X66500D02*
D03*
X76500D02*
D03*
X86500D02*
D03*
X96500D02*
D03*
X106500D02*
D03*
X116500D02*
D03*
X126500D02*
D03*
X136500D02*
D03*
X176000Y90500D02*
D03*
Y100500D02*
D03*
D45*
X48300Y61800D02*
D03*
X101600Y80900D02*
D03*
X131000Y31900D02*
D03*
X161700Y117300D02*
D03*
M02*
