G04*
G04 #@! TF.GenerationSoftware,Altium Limited,Altium Designer,22.9.1 (49)*
G04*
G04 Layer_Color=255*
%FSLAX25Y25*%
%MOIN*%
G70*
G04*
G04 #@! TF.SameCoordinates,75241AAF-32B0-4302-B227-1967B964D7D5*
G04*
G04*
G04 #@! TF.FilePolarity,Positive*
G04*
G01*
G75*
%ADD32R,0.05394X0.05394*%
%ADD33C,0.05394*%
%ADD34R,0.05394X0.05394*%
%ADD35R,0.06299X0.06299*%
%ADD36C,0.06299*%
%ADD37R,0.05118X0.05118*%
%ADD38C,0.05118*%
%ADD39R,0.04724X0.04724*%
%ADD40C,0.04724*%
%ADD41C,0.05906*%
%ADD42R,0.05906X0.05906*%
%ADD43R,0.06299X0.06299*%
%ADD44C,0.06378*%
D32*
X44000Y174500D02*
D03*
X199500Y183000D02*
D03*
D33*
X44000Y184500D02*
D03*
X54000Y174500D02*
D03*
Y184500D02*
D03*
X64000Y174500D02*
D03*
Y184500D02*
D03*
X25000Y101500D02*
D03*
Y111500D02*
D03*
X199000Y136500D02*
D03*
Y146500D02*
D03*
Y156500D02*
D03*
X175000Y136500D02*
D03*
Y146500D02*
D03*
Y156500D02*
D03*
X199000Y97000D02*
D03*
Y107000D02*
D03*
Y47000D02*
D03*
Y57000D02*
D03*
Y67000D02*
D03*
X189500Y183000D02*
D03*
X179500D02*
D03*
X169500D02*
D03*
X159500D02*
D03*
D34*
X25000Y91500D02*
D03*
X199000Y126500D02*
D03*
X175000D02*
D03*
X199000Y87000D02*
D03*
Y37000D02*
D03*
D35*
X54000Y134528D02*
D03*
D36*
Y75472D02*
D03*
X26500Y63500D02*
D03*
Y53500D02*
D03*
D37*
X83500Y40500D02*
D03*
X85000Y144500D02*
D03*
X25000Y151000D02*
D03*
D38*
X83500Y60500D02*
D03*
X85000Y164500D02*
D03*
X25000Y131000D02*
D03*
D39*
X85500Y93394D02*
D03*
D40*
Y103000D02*
D03*
Y112606D02*
D03*
D41*
X140500Y35500D02*
D03*
Y45500D02*
D03*
Y55500D02*
D03*
Y65500D02*
D03*
Y75500D02*
D03*
Y85500D02*
D03*
Y95500D02*
D03*
Y105500D02*
D03*
Y115500D02*
D03*
Y125500D02*
D03*
Y135500D02*
D03*
Y145500D02*
D03*
Y155500D02*
D03*
Y165500D02*
D03*
X110500Y35500D02*
D03*
Y45500D02*
D03*
Y55500D02*
D03*
Y65500D02*
D03*
Y75500D02*
D03*
Y85500D02*
D03*
Y95500D02*
D03*
Y105500D02*
D03*
Y115500D02*
D03*
Y125500D02*
D03*
Y135500D02*
D03*
Y145500D02*
D03*
Y155500D02*
D03*
D42*
Y165500D02*
D03*
D43*
X26500Y43500D02*
D03*
D44*
X25500Y185000D02*
D03*
Y175000D02*
D03*
X83500Y183000D02*
D03*
X93500D02*
D03*
X103500D02*
D03*
X113500D02*
D03*
X123500D02*
D03*
X133500D02*
D03*
X176000Y56000D02*
D03*
Y66000D02*
D03*
Y20500D02*
D03*
Y30500D02*
D03*
X26500Y20000D02*
D03*
X36500D02*
D03*
X46500D02*
D03*
X56500D02*
D03*
X66500D02*
D03*
X76500D02*
D03*
X86500D02*
D03*
X96500D02*
D03*
X106500D02*
D03*
X116500D02*
D03*
X126500D02*
D03*
X136500D02*
D03*
X176000Y90500D02*
D03*
Y100500D02*
D03*
M02*
