G04*
G04 #@! TF.GenerationSoftware,Altium Limited,Altium Designer,22.9.1 (49)*
G04*
G04 Layer_Color=65535*
%FSLAX25Y25*%
%MOIN*%
G70*
G04*
G04 #@! TF.SameCoordinates,75241AAF-32B0-4302-B227-1967B964D7D5*
G04*
G04*
G04 #@! TF.FilePolarity,Positive*
G04*
G01*
G75*
%ADD10C,0.00787*%
%ADD11C,0.00984*%
%ADD12C,0.00700*%
%ADD13C,0.02362*%
%ADD14C,0.00787*%
%ADD15C,0.01000*%
G36*
X26736Y197158D02*
X26750Y197143D01*
X26757Y197115D01*
X26779Y197079D01*
X26800Y197036D01*
X26829Y196986D01*
X26901Y196864D01*
X26979Y196721D01*
X27080Y196577D01*
X27194Y196426D01*
X27316Y196276D01*
X27323Y196269D01*
X27331Y196262D01*
X27352Y196240D01*
X27374Y196211D01*
X27445Y196147D01*
X27531Y196061D01*
X27632Y195975D01*
X27746Y195882D01*
X27861Y195803D01*
X27983Y195731D01*
Y195337D01*
X23000D01*
Y195946D01*
X26879D01*
X26872Y195953D01*
X26843Y195989D01*
X26800Y196032D01*
X26750Y196104D01*
X26685Y196183D01*
X26614Y196283D01*
X26535Y196398D01*
X26456Y196527D01*
Y196534D01*
X26449Y196541D01*
X26420Y196584D01*
X26384Y196656D01*
X26341Y196742D01*
X26291Y196842D01*
X26241Y196950D01*
X26191Y197057D01*
X26148Y197165D01*
X26736D01*
Y197158D01*
D02*
G37*
G36*
X23136Y166872D02*
X23201Y166865D01*
X23272Y166850D01*
X23344Y166836D01*
X23423Y166807D01*
X23430D01*
X23437Y166800D01*
X23480Y166786D01*
X23545Y166757D01*
X23631Y166714D01*
X23731Y166657D01*
X23846Y166585D01*
X23961Y166506D01*
X24083Y166406D01*
X24090D01*
X24097Y166391D01*
X24140Y166355D01*
X24205Y166291D01*
X24298Y166198D01*
X24405Y166090D01*
X24534Y165954D01*
X24678Y165789D01*
X24828Y165610D01*
X24836Y165603D01*
X24857Y165574D01*
X24893Y165531D01*
X24936Y165481D01*
X24993Y165416D01*
X25058Y165337D01*
X25130Y165258D01*
X25208Y165165D01*
X25380Y164986D01*
X25552Y164807D01*
X25639Y164721D01*
X25725Y164642D01*
X25804Y164570D01*
X25882Y164513D01*
X25890D01*
X25897Y164498D01*
X25918Y164484D01*
X25947Y164470D01*
X26026Y164419D01*
X26119Y164362D01*
X26234Y164312D01*
X26356Y164262D01*
X26492Y164233D01*
X26621Y164219D01*
X26628D01*
X26635D01*
X26678Y164226D01*
X26750Y164233D01*
X26829Y164255D01*
X26929Y164283D01*
X27029Y164333D01*
X27130Y164398D01*
X27230Y164484D01*
X27245Y164498D01*
X27273Y164534D01*
X27309Y164584D01*
X27359Y164663D01*
X27402Y164764D01*
X27445Y164878D01*
X27474Y165015D01*
X27481Y165165D01*
Y165208D01*
X27474Y165237D01*
X27467Y165323D01*
X27445Y165423D01*
X27417Y165531D01*
X27367Y165653D01*
X27302Y165768D01*
X27216Y165875D01*
X27202Y165889D01*
X27166Y165918D01*
X27108Y165961D01*
X27022Y166004D01*
X26922Y166054D01*
X26793Y166097D01*
X26649Y166126D01*
X26485Y166140D01*
X26549Y166764D01*
X26556D01*
X26578Y166757D01*
X26614D01*
X26664Y166750D01*
X26721Y166735D01*
X26786Y166721D01*
X26865Y166700D01*
X26943Y166678D01*
X27116Y166621D01*
X27288Y166535D01*
X27374Y166484D01*
X27460Y166420D01*
X27539Y166355D01*
X27610Y166284D01*
X27617Y166277D01*
X27625Y166262D01*
X27646Y166241D01*
X27668Y166205D01*
X27696Y166162D01*
X27725Y166112D01*
X27761Y166054D01*
X27797Y165983D01*
X27833Y165904D01*
X27868Y165818D01*
X27897Y165725D01*
X27926Y165624D01*
X27947Y165516D01*
X27969Y165402D01*
X27976Y165280D01*
X27983Y165151D01*
Y165079D01*
X27976Y165029D01*
X27969Y164972D01*
X27962Y164900D01*
X27947Y164821D01*
X27933Y164742D01*
X27883Y164556D01*
X27811Y164369D01*
X27768Y164276D01*
X27718Y164183D01*
X27653Y164097D01*
X27582Y164018D01*
X27575Y164011D01*
X27567Y163997D01*
X27539Y163982D01*
X27510Y163953D01*
X27474Y163918D01*
X27424Y163882D01*
X27374Y163846D01*
X27309Y163803D01*
X27173Y163731D01*
X27001Y163660D01*
X26915Y163631D01*
X26814Y163617D01*
X26714Y163602D01*
X26607Y163595D01*
X26592D01*
X26556D01*
X26499Y163602D01*
X26420Y163609D01*
X26334Y163624D01*
X26234Y163652D01*
X26126Y163681D01*
X26019Y163724D01*
X26004Y163731D01*
X25968Y163745D01*
X25911Y163774D01*
X25832Y163817D01*
X25746Y163875D01*
X25639Y163946D01*
X25531Y164032D01*
X25409Y164133D01*
X25395Y164147D01*
X25352Y164183D01*
X25316Y164219D01*
X25280Y164255D01*
X25237Y164298D01*
X25180Y164355D01*
X25122Y164412D01*
X25058Y164484D01*
X24986Y164556D01*
X24907Y164642D01*
X24828Y164735D01*
X24735Y164835D01*
X24642Y164950D01*
X24542Y165065D01*
X24534Y165072D01*
X24520Y165086D01*
X24498Y165115D01*
X24470Y165151D01*
X24427Y165194D01*
X24384Y165244D01*
X24291Y165359D01*
X24183Y165481D01*
X24076Y165595D01*
X23982Y165696D01*
X23946Y165739D01*
X23911Y165775D01*
X23903Y165782D01*
X23882Y165803D01*
X23853Y165832D01*
X23810Y165868D01*
X23760Y165904D01*
X23710Y165947D01*
X23588Y166033D01*
Y163588D01*
X23000D01*
Y166879D01*
X23007D01*
X23036D01*
X23079D01*
X23136Y166872D01*
D02*
G37*
G36*
X73163Y180500D02*
X72554D01*
Y184379D01*
X72547Y184372D01*
X72511Y184343D01*
X72468Y184300D01*
X72396Y184250D01*
X72317Y184185D01*
X72217Y184114D01*
X72102Y184035D01*
X71973Y183956D01*
X71966D01*
X71959Y183949D01*
X71916Y183920D01*
X71844Y183884D01*
X71758Y183841D01*
X71658Y183791D01*
X71550Y183741D01*
X71443Y183691D01*
X71335Y183648D01*
Y184236D01*
X71342D01*
X71356Y184250D01*
X71385Y184257D01*
X71421Y184279D01*
X71464Y184300D01*
X71514Y184329D01*
X71636Y184400D01*
X71780Y184479D01*
X71923Y184580D01*
X72074Y184695D01*
X72224Y184816D01*
X72231Y184824D01*
X72238Y184831D01*
X72260Y184852D01*
X72289Y184874D01*
X72353Y184945D01*
X72439Y185031D01*
X72525Y185132D01*
X72618Y185247D01*
X72697Y185361D01*
X72769Y185483D01*
X73163D01*
Y180500D01*
D02*
G37*
G36*
X143500Y185476D02*
X143550D01*
X143607Y185469D01*
X143744Y185440D01*
X143894Y185404D01*
X144052Y185347D01*
X144210Y185261D01*
X144288Y185211D01*
X144360Y185153D01*
X144367Y185146D01*
X144375Y185139D01*
X144396Y185117D01*
X144418Y185096D01*
X144453Y185060D01*
X144482Y185017D01*
X144561Y184917D01*
X144640Y184788D01*
X144711Y184630D01*
X144776Y184451D01*
X144819Y184250D01*
X144210Y184200D01*
Y184207D01*
X144202Y184214D01*
X144195Y184257D01*
X144174Y184322D01*
X144145Y184400D01*
X144116Y184486D01*
X144073Y184573D01*
X144023Y184651D01*
X143973Y184716D01*
X143959Y184730D01*
X143930Y184759D01*
X143880Y184802D01*
X143808Y184852D01*
X143715Y184895D01*
X143614Y184938D01*
X143492Y184967D01*
X143363Y184981D01*
X143313D01*
X143256Y184974D01*
X143191Y184960D01*
X143105Y184938D01*
X143019Y184909D01*
X142933Y184874D01*
X142847Y184816D01*
X142833Y184809D01*
X142797Y184781D01*
X142747Y184730D01*
X142682Y184659D01*
X142611Y184573D01*
X142532Y184472D01*
X142460Y184343D01*
X142388Y184200D01*
Y184193D01*
X142381Y184178D01*
X142374Y184157D01*
X142360Y184128D01*
X142352Y184085D01*
X142338Y184035D01*
X142324Y183977D01*
X142309Y183906D01*
X142288Y183827D01*
X142274Y183741D01*
X142259Y183648D01*
X142252Y183547D01*
X142238Y183432D01*
X142231Y183318D01*
X142224Y183189D01*
Y183060D01*
X142231Y183067D01*
X142259Y183110D01*
X142309Y183167D01*
X142374Y183239D01*
X142446Y183325D01*
X142539Y183404D01*
X142639Y183483D01*
X142754Y183554D01*
X142761D01*
X142768Y183562D01*
X142811Y183583D01*
X142876Y183605D01*
X142962Y183641D01*
X143062Y183669D01*
X143177Y183691D01*
X143299Y183712D01*
X143428Y183719D01*
X143485D01*
X143528Y183712D01*
X143586Y183705D01*
X143643Y183698D01*
X143715Y183684D01*
X143787Y183662D01*
X143951Y183612D01*
X144037Y183576D01*
X144123Y183526D01*
X144210Y183475D01*
X144303Y183418D01*
X144389Y183346D01*
X144468Y183268D01*
X144475Y183260D01*
X144489Y183246D01*
X144511Y183225D01*
X144532Y183189D01*
X144568Y183139D01*
X144604Y183088D01*
X144640Y183024D01*
X144683Y182952D01*
X144726Y182873D01*
X144762Y182787D01*
X144798Y182687D01*
X144833Y182587D01*
X144855Y182479D01*
X144876Y182357D01*
X144891Y182235D01*
X144898Y182106D01*
Y182099D01*
Y182085D01*
Y182063D01*
Y182027D01*
X144891Y181984D01*
Y181941D01*
X144869Y181826D01*
X144848Y181690D01*
X144812Y181547D01*
X144762Y181389D01*
X144690Y181238D01*
Y181231D01*
X144683Y181224D01*
X144668Y181203D01*
X144654Y181174D01*
X144611Y181102D01*
X144546Y181009D01*
X144468Y180909D01*
X144375Y180808D01*
X144260Y180708D01*
X144138Y180622D01*
X144131D01*
X144123Y180615D01*
X144102Y180600D01*
X144073Y180593D01*
X144002Y180557D01*
X143908Y180522D01*
X143787Y180479D01*
X143650Y180450D01*
X143500Y180421D01*
X143335Y180414D01*
X143299D01*
X143263Y180421D01*
X143206D01*
X143141Y180428D01*
X143070Y180443D01*
X142983Y180464D01*
X142897Y180486D01*
X142797Y180514D01*
X142697Y180550D01*
X142596Y180593D01*
X142489Y180651D01*
X142388Y180715D01*
X142288Y180787D01*
X142188Y180873D01*
X142094Y180973D01*
X142087Y180980D01*
X142073Y181002D01*
X142051Y181031D01*
X142023Y181081D01*
X141980Y181145D01*
X141944Y181217D01*
X141901Y181310D01*
X141858Y181411D01*
X141808Y181533D01*
X141765Y181669D01*
X141729Y181819D01*
X141693Y181984D01*
X141657Y182171D01*
X141636Y182371D01*
X141621Y182587D01*
X141614Y182816D01*
Y182823D01*
Y182830D01*
Y182852D01*
Y182880D01*
X141621Y182952D01*
Y183053D01*
X141628Y183167D01*
X141643Y183303D01*
X141657Y183454D01*
X141679Y183619D01*
X141707Y183784D01*
X141743Y183963D01*
X141786Y184135D01*
X141836Y184307D01*
X141901Y184472D01*
X141972Y184630D01*
X142051Y184781D01*
X142145Y184909D01*
X142152Y184917D01*
X142166Y184931D01*
X142195Y184960D01*
X142231Y185003D01*
X142274Y185046D01*
X142331Y185089D01*
X142403Y185146D01*
X142474Y185196D01*
X142560Y185247D01*
X142654Y185304D01*
X142761Y185347D01*
X142869Y185397D01*
X142991Y185433D01*
X143120Y185462D01*
X143256Y185476D01*
X143399Y185483D01*
X143457D01*
X143500Y185476D01*
D02*
G37*
G36*
X190000Y53719D02*
X186121D01*
X186128Y53712D01*
X186157Y53676D01*
X186200Y53633D01*
X186250Y53561D01*
X186315Y53482D01*
X186386Y53382D01*
X186465Y53267D01*
X186544Y53138D01*
Y53131D01*
X186551Y53124D01*
X186580Y53081D01*
X186616Y53009D01*
X186659Y52923D01*
X186709Y52823D01*
X186759Y52715D01*
X186809Y52608D01*
X186852Y52500D01*
X186264D01*
Y52507D01*
X186250Y52522D01*
X186243Y52550D01*
X186221Y52586D01*
X186200Y52629D01*
X186171Y52679D01*
X186100Y52801D01*
X186021Y52944D01*
X185920Y53088D01*
X185805Y53238D01*
X185684Y53389D01*
X185677Y53396D01*
X185669Y53403D01*
X185648Y53425D01*
X185626Y53454D01*
X185555Y53518D01*
X185469Y53604D01*
X185368Y53690D01*
X185254Y53783D01*
X185139Y53862D01*
X185017Y53934D01*
Y54328D01*
X190000D01*
Y53719D01*
D02*
G37*
G36*
X189500Y66007D02*
X189493D01*
X189464D01*
X189421D01*
X189364Y66014D01*
X189299Y66022D01*
X189227Y66036D01*
X189156Y66050D01*
X189077Y66079D01*
X189070D01*
X189063Y66086D01*
X189020Y66100D01*
X188955Y66129D01*
X188869Y66172D01*
X188769Y66229D01*
X188654Y66301D01*
X188539Y66380D01*
X188417Y66480D01*
X188410D01*
X188403Y66495D01*
X188360Y66531D01*
X188295Y66595D01*
X188202Y66688D01*
X188095Y66796D01*
X187966Y66932D01*
X187822Y67097D01*
X187672Y67276D01*
X187664Y67283D01*
X187643Y67312D01*
X187607Y67355D01*
X187564Y67405D01*
X187507Y67470D01*
X187442Y67549D01*
X187371Y67628D01*
X187292Y67721D01*
X187120Y67900D01*
X186948Y68079D01*
X186861Y68165D01*
X186775Y68244D01*
X186697Y68316D01*
X186618Y68373D01*
X186610D01*
X186603Y68388D01*
X186582Y68402D01*
X186553Y68416D01*
X186474Y68467D01*
X186381Y68524D01*
X186266Y68574D01*
X186144Y68624D01*
X186008Y68653D01*
X185879Y68667D01*
X185872D01*
X185865D01*
X185822Y68660D01*
X185750Y68653D01*
X185671Y68631D01*
X185571Y68603D01*
X185470Y68553D01*
X185370Y68488D01*
X185270Y68402D01*
X185255Y68388D01*
X185227Y68352D01*
X185191Y68302D01*
X185141Y68223D01*
X185098Y68122D01*
X185055Y68008D01*
X185026Y67871D01*
X185019Y67721D01*
Y67678D01*
X185026Y67649D01*
X185033Y67563D01*
X185055Y67463D01*
X185083Y67355D01*
X185134Y67233D01*
X185198Y67119D01*
X185284Y67011D01*
X185298Y66997D01*
X185334Y66968D01*
X185392Y66925D01*
X185478Y66882D01*
X185578Y66832D01*
X185707Y66789D01*
X185851Y66760D01*
X186015Y66746D01*
X185951Y66122D01*
X185944D01*
X185922Y66129D01*
X185886D01*
X185836Y66136D01*
X185779Y66151D01*
X185714Y66165D01*
X185635Y66186D01*
X185556Y66208D01*
X185384Y66265D01*
X185212Y66351D01*
X185126Y66401D01*
X185040Y66466D01*
X184961Y66531D01*
X184890Y66602D01*
X184882Y66610D01*
X184875Y66624D01*
X184854Y66645D01*
X184832Y66681D01*
X184804Y66724D01*
X184775Y66774D01*
X184739Y66832D01*
X184703Y66903D01*
X184667Y66982D01*
X184632Y67068D01*
X184603Y67162D01*
X184574Y67262D01*
X184553Y67370D01*
X184531Y67484D01*
X184524Y67606D01*
X184517Y67735D01*
Y67807D01*
X184524Y67857D01*
X184531Y67914D01*
X184538Y67986D01*
X184553Y68065D01*
X184567Y68144D01*
X184617Y68330D01*
X184689Y68517D01*
X184732Y68610D01*
X184782Y68703D01*
X184847Y68789D01*
X184918Y68868D01*
X184925Y68875D01*
X184933Y68889D01*
X184961Y68904D01*
X184990Y68932D01*
X185026Y68968D01*
X185076Y69004D01*
X185126Y69040D01*
X185191Y69083D01*
X185327Y69155D01*
X185499Y69226D01*
X185585Y69255D01*
X185686Y69270D01*
X185786Y69284D01*
X185893Y69291D01*
X185908D01*
X185944D01*
X186001Y69284D01*
X186080Y69277D01*
X186166Y69262D01*
X186266Y69234D01*
X186374Y69205D01*
X186481Y69162D01*
X186496Y69155D01*
X186532Y69140D01*
X186589Y69112D01*
X186668Y69069D01*
X186754Y69011D01*
X186861Y68940D01*
X186969Y68854D01*
X187091Y68753D01*
X187105Y68739D01*
X187148Y68703D01*
X187184Y68667D01*
X187220Y68631D01*
X187263Y68588D01*
X187320Y68531D01*
X187378Y68474D01*
X187442Y68402D01*
X187514Y68330D01*
X187593Y68244D01*
X187672Y68151D01*
X187765Y68051D01*
X187858Y67936D01*
X187958Y67821D01*
X187966Y67814D01*
X187980Y67800D01*
X188002Y67771D01*
X188030Y67735D01*
X188073Y67692D01*
X188116Y67642D01*
X188209Y67527D01*
X188317Y67405D01*
X188425Y67291D01*
X188518Y67190D01*
X188554Y67147D01*
X188589Y67111D01*
X188597Y67104D01*
X188618Y67083D01*
X188647Y67054D01*
X188690Y67018D01*
X188740Y66982D01*
X188790Y66939D01*
X188912Y66853D01*
Y69298D01*
X189500D01*
Y66007D01*
D02*
G37*
G36*
Y17719D02*
X185621D01*
X185628Y17712D01*
X185657Y17676D01*
X185700Y17633D01*
X185750Y17561D01*
X185815Y17482D01*
X185886Y17382D01*
X185965Y17267D01*
X186044Y17138D01*
Y17131D01*
X186051Y17124D01*
X186080Y17081D01*
X186116Y17009D01*
X186159Y16923D01*
X186209Y16823D01*
X186259Y16715D01*
X186309Y16608D01*
X186352Y16500D01*
X185764D01*
Y16507D01*
X185750Y16522D01*
X185743Y16550D01*
X185721Y16586D01*
X185700Y16629D01*
X185671Y16679D01*
X185600Y16801D01*
X185521Y16944D01*
X185420Y17088D01*
X185306Y17239D01*
X185184Y17389D01*
X185177Y17396D01*
X185169Y17403D01*
X185148Y17425D01*
X185126Y17454D01*
X185055Y17518D01*
X184969Y17604D01*
X184868Y17690D01*
X184754Y17783D01*
X184639Y17862D01*
X184517Y17934D01*
Y18328D01*
X189500D01*
Y17719D01*
D02*
G37*
G36*
X189000Y32007D02*
X188993D01*
X188964D01*
X188921D01*
X188864Y32014D01*
X188799Y32021D01*
X188727Y32036D01*
X188656Y32050D01*
X188577Y32079D01*
X188570D01*
X188563Y32086D01*
X188520Y32100D01*
X188455Y32129D01*
X188369Y32172D01*
X188269Y32229D01*
X188154Y32301D01*
X188039Y32380D01*
X187917Y32480D01*
X187910D01*
X187903Y32495D01*
X187860Y32531D01*
X187795Y32595D01*
X187702Y32688D01*
X187595Y32796D01*
X187466Y32932D01*
X187322Y33097D01*
X187172Y33276D01*
X187164Y33283D01*
X187143Y33312D01*
X187107Y33355D01*
X187064Y33405D01*
X187007Y33470D01*
X186942Y33549D01*
X186871Y33628D01*
X186792Y33721D01*
X186620Y33900D01*
X186448Y34079D01*
X186361Y34165D01*
X186275Y34244D01*
X186196Y34316D01*
X186118Y34373D01*
X186110D01*
X186103Y34388D01*
X186082Y34402D01*
X186053Y34416D01*
X185974Y34466D01*
X185881Y34524D01*
X185766Y34574D01*
X185644Y34624D01*
X185508Y34653D01*
X185379Y34667D01*
X185372D01*
X185365D01*
X185322Y34660D01*
X185250Y34653D01*
X185171Y34631D01*
X185071Y34603D01*
X184970Y34552D01*
X184870Y34488D01*
X184770Y34402D01*
X184755Y34388D01*
X184727Y34352D01*
X184691Y34302D01*
X184641Y34223D01*
X184598Y34122D01*
X184555Y34008D01*
X184526Y33871D01*
X184519Y33721D01*
Y33678D01*
X184526Y33649D01*
X184533Y33563D01*
X184555Y33463D01*
X184583Y33355D01*
X184634Y33233D01*
X184698Y33119D01*
X184784Y33011D01*
X184798Y32997D01*
X184834Y32968D01*
X184892Y32925D01*
X184978Y32882D01*
X185078Y32832D01*
X185207Y32789D01*
X185351Y32760D01*
X185515Y32746D01*
X185451Y32122D01*
X185444D01*
X185422Y32129D01*
X185386D01*
X185336Y32136D01*
X185279Y32151D01*
X185214Y32165D01*
X185135Y32186D01*
X185056Y32208D01*
X184884Y32265D01*
X184712Y32351D01*
X184626Y32401D01*
X184540Y32466D01*
X184461Y32531D01*
X184390Y32602D01*
X184382Y32609D01*
X184375Y32624D01*
X184354Y32645D01*
X184332Y32681D01*
X184304Y32724D01*
X184275Y32774D01*
X184239Y32832D01*
X184203Y32903D01*
X184167Y32982D01*
X184132Y33068D01*
X184103Y33162D01*
X184074Y33262D01*
X184053Y33369D01*
X184031Y33484D01*
X184024Y33606D01*
X184017Y33735D01*
Y33807D01*
X184024Y33857D01*
X184031Y33914D01*
X184038Y33986D01*
X184053Y34065D01*
X184067Y34144D01*
X184117Y34330D01*
X184189Y34517D01*
X184232Y34610D01*
X184282Y34703D01*
X184347Y34789D01*
X184418Y34868D01*
X184425Y34875D01*
X184433Y34890D01*
X184461Y34904D01*
X184490Y34933D01*
X184526Y34968D01*
X184576Y35004D01*
X184626Y35040D01*
X184691Y35083D01*
X184827Y35155D01*
X184999Y35227D01*
X185085Y35255D01*
X185186Y35269D01*
X185286Y35284D01*
X185394Y35291D01*
X185408D01*
X185444D01*
X185501Y35284D01*
X185580Y35277D01*
X185666Y35262D01*
X185766Y35234D01*
X185874Y35205D01*
X185981Y35162D01*
X185996Y35155D01*
X186032Y35140D01*
X186089Y35112D01*
X186168Y35069D01*
X186254Y35011D01*
X186361Y34940D01*
X186469Y34854D01*
X186591Y34753D01*
X186605Y34739D01*
X186648Y34703D01*
X186684Y34667D01*
X186720Y34631D01*
X186763Y34588D01*
X186820Y34531D01*
X186878Y34474D01*
X186942Y34402D01*
X187014Y34330D01*
X187093Y34244D01*
X187172Y34151D01*
X187265Y34051D01*
X187358Y33936D01*
X187458Y33821D01*
X187466Y33814D01*
X187480Y33800D01*
X187502Y33771D01*
X187530Y33735D01*
X187573Y33692D01*
X187616Y33642D01*
X187709Y33527D01*
X187817Y33405D01*
X187925Y33291D01*
X188018Y33190D01*
X188054Y33147D01*
X188089Y33111D01*
X188097Y33104D01*
X188118Y33083D01*
X188147Y33054D01*
X188190Y33018D01*
X188240Y32982D01*
X188290Y32939D01*
X188412Y32853D01*
Y35298D01*
X189000D01*
Y32007D01*
D02*
G37*
G36*
X16163Y17500D02*
X15554D01*
Y21379D01*
X15547Y21372D01*
X15511Y21343D01*
X15468Y21300D01*
X15396Y21250D01*
X15317Y21185D01*
X15217Y21114D01*
X15102Y21035D01*
X14973Y20956D01*
X14966D01*
X14959Y20949D01*
X14916Y20920D01*
X14844Y20884D01*
X14758Y20841D01*
X14658Y20791D01*
X14550Y20741D01*
X14443Y20691D01*
X14335Y20648D01*
Y21236D01*
X14342D01*
X14356Y21250D01*
X14385Y21257D01*
X14421Y21279D01*
X14464Y21300D01*
X14514Y21329D01*
X14636Y21400D01*
X14780Y21479D01*
X14923Y21580D01*
X15074Y21695D01*
X15224Y21816D01*
X15231Y21824D01*
X15238Y21831D01*
X15260Y21852D01*
X15289Y21874D01*
X15353Y21945D01*
X15439Y22031D01*
X15525Y22132D01*
X15618Y22246D01*
X15697Y22361D01*
X15769Y22483D01*
X16163D01*
Y17500D01*
D02*
G37*
G36*
X149769Y22476D02*
X149827Y22469D01*
X149898Y22462D01*
X149977Y22447D01*
X150056Y22433D01*
X150242Y22383D01*
X150429Y22311D01*
X150522Y22268D01*
X150615Y22218D01*
X150701Y22153D01*
X150780Y22082D01*
X150787Y22074D01*
X150802Y22067D01*
X150816Y22039D01*
X150845Y22010D01*
X150881Y21974D01*
X150916Y21924D01*
X150952Y21874D01*
X150995Y21809D01*
X151067Y21673D01*
X151139Y21501D01*
X151167Y21415D01*
X151182Y21314D01*
X151196Y21214D01*
X151203Y21106D01*
Y21092D01*
Y21056D01*
X151196Y20999D01*
X151189Y20920D01*
X151174Y20834D01*
X151146Y20734D01*
X151117Y20626D01*
X151074Y20519D01*
X151067Y20504D01*
X151053Y20468D01*
X151024Y20411D01*
X150981Y20332D01*
X150924Y20246D01*
X150852Y20139D01*
X150766Y20031D01*
X150665Y19909D01*
X150651Y19895D01*
X150615Y19852D01*
X150579Y19816D01*
X150544Y19780D01*
X150501Y19737D01*
X150443Y19680D01*
X150386Y19622D01*
X150314Y19558D01*
X150242Y19486D01*
X150156Y19407D01*
X150063Y19328D01*
X149963Y19235D01*
X149848Y19142D01*
X149733Y19042D01*
X149726Y19034D01*
X149712Y19020D01*
X149683Y18999D01*
X149647Y18970D01*
X149604Y18927D01*
X149554Y18884D01*
X149439Y18791D01*
X149318Y18683D01*
X149203Y18575D01*
X149102Y18482D01*
X149059Y18446D01*
X149024Y18411D01*
X149016Y18403D01*
X148995Y18382D01*
X148966Y18353D01*
X148930Y18310D01*
X148895Y18260D01*
X148852Y18210D01*
X148765Y18088D01*
X151210D01*
Y17500D01*
X147919D01*
Y17507D01*
Y17536D01*
Y17579D01*
X147926Y17636D01*
X147934Y17701D01*
X147948Y17773D01*
X147962Y17844D01*
X147991Y17923D01*
Y17930D01*
X147998Y17937D01*
X148013Y17980D01*
X148041Y18045D01*
X148084Y18131D01*
X148142Y18231D01*
X148213Y18346D01*
X148292Y18461D01*
X148393Y18583D01*
Y18590D01*
X148407Y18597D01*
X148443Y18640D01*
X148507Y18705D01*
X148600Y18798D01*
X148708Y18905D01*
X148844Y19034D01*
X149009Y19178D01*
X149188Y19328D01*
X149196Y19335D01*
X149224Y19357D01*
X149267Y19393D01*
X149318Y19436D01*
X149382Y19493D01*
X149461Y19558D01*
X149540Y19629D01*
X149633Y19708D01*
X149812Y19880D01*
X149992Y20053D01*
X150077Y20139D01*
X150156Y20225D01*
X150228Y20303D01*
X150285Y20382D01*
Y20390D01*
X150300Y20397D01*
X150314Y20418D01*
X150329Y20447D01*
X150379Y20526D01*
X150436Y20619D01*
X150486Y20734D01*
X150536Y20856D01*
X150565Y20992D01*
X150579Y21121D01*
Y21128D01*
Y21135D01*
X150572Y21178D01*
X150565Y21250D01*
X150544Y21329D01*
X150515Y21429D01*
X150465Y21530D01*
X150400Y21630D01*
X150314Y21730D01*
X150300Y21745D01*
X150264Y21773D01*
X150214Y21809D01*
X150135Y21859D01*
X150034Y21902D01*
X149920Y21945D01*
X149784Y21974D01*
X149633Y21981D01*
X149590D01*
X149561Y21974D01*
X149475Y21967D01*
X149375Y21945D01*
X149267Y21917D01*
X149145Y21867D01*
X149031Y21802D01*
X148923Y21716D01*
X148909Y21702D01*
X148880Y21666D01*
X148837Y21608D01*
X148794Y21522D01*
X148744Y21422D01*
X148701Y21293D01*
X148672Y21149D01*
X148658Y20985D01*
X148034Y21049D01*
Y21056D01*
X148041Y21078D01*
Y21114D01*
X148048Y21164D01*
X148063Y21221D01*
X148077Y21286D01*
X148099Y21365D01*
X148120Y21443D01*
X148178Y21616D01*
X148264Y21788D01*
X148314Y21874D01*
X148378Y21960D01*
X148443Y22039D01*
X148514Y22110D01*
X148522Y22118D01*
X148536Y22125D01*
X148557Y22146D01*
X148593Y22168D01*
X148636Y22196D01*
X148687Y22225D01*
X148744Y22261D01*
X148816Y22297D01*
X148895Y22333D01*
X148980Y22368D01*
X149074Y22397D01*
X149174Y22426D01*
X149282Y22447D01*
X149396Y22469D01*
X149518Y22476D01*
X149647Y22483D01*
X149719D01*
X149769Y22476D01*
D02*
G37*
G36*
X146442Y17500D02*
X145833D01*
Y21379D01*
X145826Y21372D01*
X145790Y21343D01*
X145747Y21300D01*
X145675Y21250D01*
X145596Y21185D01*
X145496Y21114D01*
X145381Y21035D01*
X145252Y20956D01*
X145245D01*
X145238Y20949D01*
X145195Y20920D01*
X145123Y20884D01*
X145037Y20841D01*
X144937Y20791D01*
X144829Y20741D01*
X144722Y20691D01*
X144614Y20648D01*
Y21236D01*
X144621D01*
X144635Y21250D01*
X144664Y21257D01*
X144700Y21279D01*
X144743Y21300D01*
X144793Y21329D01*
X144915Y21400D01*
X145059Y21479D01*
X145202Y21580D01*
X145352Y21695D01*
X145503Y21816D01*
X145510Y21824D01*
X145517Y21831D01*
X145539Y21852D01*
X145568Y21874D01*
X145632Y21945D01*
X145718Y22031D01*
X145804Y22132D01*
X145897Y22246D01*
X145976Y22361D01*
X146048Y22483D01*
X146442D01*
Y17500D01*
D02*
G37*
G36*
X190000Y90219D02*
X186121D01*
X186128Y90212D01*
X186157Y90176D01*
X186200Y90133D01*
X186250Y90061D01*
X186315Y89982D01*
X186386Y89882D01*
X186465Y89767D01*
X186544Y89638D01*
Y89631D01*
X186551Y89624D01*
X186580Y89581D01*
X186616Y89509D01*
X186659Y89423D01*
X186709Y89323D01*
X186759Y89215D01*
X186809Y89108D01*
X186852Y89000D01*
X186264D01*
Y89007D01*
X186250Y89021D01*
X186243Y89050D01*
X186221Y89086D01*
X186200Y89129D01*
X186171Y89179D01*
X186100Y89301D01*
X186021Y89445D01*
X185920Y89588D01*
X185805Y89739D01*
X185684Y89889D01*
X185677Y89896D01*
X185669Y89903D01*
X185648Y89925D01*
X185626Y89954D01*
X185555Y90018D01*
X185469Y90104D01*
X185368Y90190D01*
X185254Y90283D01*
X185139Y90362D01*
X185017Y90434D01*
Y90828D01*
X190000D01*
Y90219D01*
D02*
G37*
G36*
X189500Y99507D02*
X189493D01*
X189464D01*
X189421D01*
X189364Y99514D01*
X189299Y99521D01*
X189227Y99536D01*
X189156Y99550D01*
X189077Y99579D01*
X189070D01*
X189063Y99586D01*
X189020Y99600D01*
X188955Y99629D01*
X188869Y99672D01*
X188769Y99729D01*
X188654Y99801D01*
X188539Y99880D01*
X188417Y99980D01*
X188410D01*
X188403Y99995D01*
X188360Y100031D01*
X188295Y100095D01*
X188202Y100188D01*
X188095Y100296D01*
X187966Y100432D01*
X187822Y100597D01*
X187672Y100776D01*
X187664Y100783D01*
X187643Y100812D01*
X187607Y100855D01*
X187564Y100905D01*
X187507Y100970D01*
X187442Y101049D01*
X187371Y101128D01*
X187292Y101221D01*
X187120Y101400D01*
X186948Y101579D01*
X186861Y101665D01*
X186775Y101744D01*
X186697Y101816D01*
X186618Y101873D01*
X186610D01*
X186603Y101888D01*
X186582Y101902D01*
X186553Y101916D01*
X186474Y101967D01*
X186381Y102024D01*
X186266Y102074D01*
X186144Y102124D01*
X186008Y102153D01*
X185879Y102167D01*
X185872D01*
X185865D01*
X185822Y102160D01*
X185750Y102153D01*
X185671Y102131D01*
X185571Y102103D01*
X185470Y102052D01*
X185370Y101988D01*
X185270Y101902D01*
X185255Y101888D01*
X185227Y101852D01*
X185191Y101802D01*
X185141Y101723D01*
X185098Y101622D01*
X185055Y101508D01*
X185026Y101371D01*
X185019Y101221D01*
Y101178D01*
X185026Y101149D01*
X185033Y101063D01*
X185055Y100963D01*
X185083Y100855D01*
X185134Y100733D01*
X185198Y100619D01*
X185284Y100511D01*
X185298Y100497D01*
X185334Y100468D01*
X185392Y100425D01*
X185478Y100382D01*
X185578Y100332D01*
X185707Y100289D01*
X185851Y100260D01*
X186015Y100246D01*
X185951Y99622D01*
X185944D01*
X185922Y99629D01*
X185886D01*
X185836Y99636D01*
X185779Y99651D01*
X185714Y99665D01*
X185635Y99686D01*
X185556Y99708D01*
X185384Y99765D01*
X185212Y99851D01*
X185126Y99901D01*
X185040Y99966D01*
X184961Y100031D01*
X184890Y100102D01*
X184882Y100110D01*
X184875Y100124D01*
X184854Y100145D01*
X184832Y100181D01*
X184804Y100224D01*
X184775Y100274D01*
X184739Y100332D01*
X184703Y100403D01*
X184667Y100482D01*
X184632Y100568D01*
X184603Y100662D01*
X184574Y100762D01*
X184553Y100870D01*
X184531Y100984D01*
X184524Y101106D01*
X184517Y101235D01*
Y101307D01*
X184524Y101357D01*
X184531Y101414D01*
X184538Y101486D01*
X184553Y101565D01*
X184567Y101644D01*
X184617Y101830D01*
X184689Y102017D01*
X184732Y102110D01*
X184782Y102203D01*
X184847Y102289D01*
X184918Y102368D01*
X184925Y102375D01*
X184933Y102390D01*
X184961Y102404D01*
X184990Y102433D01*
X185026Y102468D01*
X185076Y102504D01*
X185126Y102540D01*
X185191Y102583D01*
X185327Y102655D01*
X185499Y102726D01*
X185585Y102755D01*
X185686Y102769D01*
X185786Y102784D01*
X185893Y102791D01*
X185908D01*
X185944D01*
X186001Y102784D01*
X186080Y102777D01*
X186166Y102762D01*
X186266Y102734D01*
X186374Y102705D01*
X186481Y102662D01*
X186496Y102655D01*
X186532Y102640D01*
X186589Y102612D01*
X186668Y102569D01*
X186754Y102511D01*
X186861Y102440D01*
X186969Y102354D01*
X187091Y102253D01*
X187105Y102239D01*
X187148Y102203D01*
X187184Y102167D01*
X187220Y102131D01*
X187263Y102088D01*
X187320Y102031D01*
X187378Y101974D01*
X187442Y101902D01*
X187514Y101830D01*
X187593Y101744D01*
X187672Y101651D01*
X187765Y101551D01*
X187858Y101436D01*
X187958Y101321D01*
X187966Y101314D01*
X187980Y101300D01*
X188002Y101271D01*
X188030Y101235D01*
X188073Y101192D01*
X188116Y101142D01*
X188209Y101027D01*
X188317Y100905D01*
X188425Y100791D01*
X188518Y100690D01*
X188554Y100647D01*
X188589Y100611D01*
X188597Y100604D01*
X188618Y100583D01*
X188647Y100554D01*
X188690Y100518D01*
X188740Y100482D01*
X188790Y100439D01*
X188912Y100353D01*
Y102798D01*
X189500D01*
Y99507D01*
D02*
G37*
%LPC*%
G36*
X143306Y183182D02*
X143263D01*
X143234Y183174D01*
X143163Y183167D01*
X143062Y183146D01*
X142955Y183110D01*
X142833Y183053D01*
X142718Y182981D01*
X142604Y182880D01*
X142589Y182866D01*
X142560Y182830D01*
X142510Y182766D01*
X142460Y182673D01*
X142410Y182565D01*
X142360Y182429D01*
X142331Y182278D01*
X142317Y182106D01*
Y182092D01*
Y182056D01*
X142324Y181991D01*
X142331Y181913D01*
X142345Y181819D01*
X142374Y181719D01*
X142403Y181611D01*
X142446Y181504D01*
X142453Y181490D01*
X142474Y181454D01*
X142503Y181403D01*
X142546Y181339D01*
X142596Y181274D01*
X142661Y181195D01*
X142733Y181131D01*
X142819Y181066D01*
X142833Y181059D01*
X142862Y181045D01*
X142912Y181016D01*
X142976Y180995D01*
X143048Y180966D01*
X143134Y180937D01*
X143227Y180923D01*
X143328Y180916D01*
X143363D01*
X143392Y180923D01*
X143464Y180930D01*
X143557Y180952D01*
X143657Y180995D01*
X143772Y181045D01*
X143887Y181124D01*
X143944Y181167D01*
X143994Y181224D01*
Y181231D01*
X144009Y181238D01*
X144037Y181281D01*
X144080Y181353D01*
X144138Y181446D01*
X144188Y181568D01*
X144231Y181712D01*
X144260Y181877D01*
X144274Y182070D01*
Y182077D01*
Y182092D01*
Y182120D01*
X144267Y182156D01*
Y182199D01*
X144260Y182249D01*
X144238Y182364D01*
X144210Y182493D01*
X144159Y182630D01*
X144088Y182758D01*
X143994Y182880D01*
X143980Y182895D01*
X143944Y182931D01*
X143887Y182974D01*
X143808Y183031D01*
X143708Y183088D01*
X143593Y183131D01*
X143457Y183167D01*
X143306Y183182D01*
D02*
G37*
%LPD*%
D10*
X36835Y174500D02*
X36047D01*
X36835D01*
X25394Y83941D02*
X24606D01*
X25394D01*
X75657Y83906D02*
X75816Y82902D01*
X76278Y81996D01*
X76996Y81278D01*
X77902Y80816D01*
X78905Y80658D01*
X92094Y80658D02*
X93098Y80816D01*
X94004Y81278D01*
X94722Y81996D01*
X95184Y82902D01*
X95342Y83906D01*
Y122095D02*
X95184Y123098D01*
X94722Y124004D01*
X94004Y124722D01*
X93098Y125184D01*
X92094Y125343D01*
X78905Y125343D02*
X77902Y125183D01*
X76996Y124722D01*
X76278Y124004D01*
X75816Y123098D01*
X75657Y122095D01*
X123000Y170185D02*
X123190Y169228D01*
X123732Y168417D01*
X124543Y167875D01*
X125500Y167685D01*
X126457Y167875D01*
X127268Y168417D01*
X127810Y169228D01*
X128000Y170185D01*
X199394Y118941D02*
X198606D01*
X199394D01*
X175394D02*
X174606D01*
X175394D01*
X199394Y79441D02*
X198606D01*
X199394D01*
Y29441D02*
X198606D01*
X199394D01*
X207453Y183000D02*
X206665D01*
X207453D01*
X39000Y169500D02*
Y189500D01*
X69000Y169500D02*
Y189500D01*
X39000D02*
X69000D01*
X39000Y169500D02*
X69000D01*
X20000Y86500D02*
X30000D01*
X20000Y116500D02*
X30000D01*
X20000Y86500D02*
Y116500D01*
X30000Y86500D02*
Y116500D01*
X46323Y85315D02*
X61677D01*
X46323Y124685D02*
X61677D01*
Y85315D02*
Y124685D01*
X46323Y85315D02*
Y124685D01*
X75488Y36504D02*
Y64496D01*
X91512Y36504D02*
Y64496D01*
X75488Y36504D02*
X91512D01*
X75488Y64496D02*
X91512D01*
X78906Y80657D02*
X92094D01*
X75657Y83906D02*
Y122095D01*
X95343Y83906D02*
Y122094D01*
X78906Y125343D02*
X92095D01*
X76988Y140504D02*
Y168496D01*
X93012Y140504D02*
Y168496D01*
X76988Y140504D02*
X93012D01*
X76988Y168496D02*
X93012D01*
X115067Y30815D02*
X135933D01*
X128000Y170185D02*
X135933D01*
X115067D02*
X123000D01*
X135933Y30815D02*
Y170185D01*
X115067Y30815D02*
Y170185D01*
X17996Y33421D02*
Y73579D01*
X16028Y33421D02*
Y73579D01*
X34532Y33421D02*
Y73579D01*
X16028D02*
X34532D01*
X16028Y33421D02*
X34532D01*
X33012Y127004D02*
Y154996D01*
X16988Y127004D02*
Y154996D01*
X33012D01*
X16988Y127004D02*
X33012D01*
X194000Y121500D02*
X204000D01*
X194000Y161500D02*
X204000D01*
X194000Y121500D02*
Y161500D01*
X204000Y121500D02*
Y161500D01*
X170000Y121500D02*
X180000D01*
X170000Y161500D02*
X180000D01*
X170000Y121500D02*
Y161500D01*
X180000Y121500D02*
Y161500D01*
X194000Y82000D02*
X204000D01*
X194000Y112000D02*
X204000D01*
X194000Y82000D02*
Y112000D01*
X204000Y82000D02*
Y112000D01*
X194000Y32000D02*
X204000D01*
X194000Y72000D02*
X204000D01*
X194000Y32000D02*
Y72000D01*
X204000Y32000D02*
Y72000D01*
X204500Y178000D02*
Y188000D01*
X154500Y178000D02*
Y188000D01*
Y178000D02*
X204500D01*
X154500Y188000D02*
X204500D01*
D11*
X84148Y34189D02*
X83409Y34615D01*
Y33763D01*
X84148Y34189D01*
X85648Y138189D02*
X84909Y138615D01*
Y137763D01*
X85648Y138189D01*
X110992Y170618D02*
X110254Y171044D01*
Y170192D01*
X110992Y170618D01*
X26992Y30862D02*
X26254Y31288D01*
Y30436D01*
X26992Y30862D01*
X25337Y157311D02*
X24598Y157737D01*
Y156885D01*
X25337Y157311D01*
D12*
X85850Y78382D02*
X85150D01*
X85850D01*
D13*
X120185Y166248D02*
X119740Y167172D01*
X118741Y167400D01*
X117940Y166761D01*
Y165736D01*
X118741Y165096D01*
X119740Y165325D01*
X120185Y166248D01*
D14*
X18728Y191772D02*
X32272D01*
X18728Y168228D02*
Y191772D01*
Y168228D02*
X32272D01*
Y191772D01*
X76728Y176228D02*
Y189772D01*
Y176228D02*
X140272D01*
Y189772D01*
X76728D02*
X140272D01*
X169228Y49228D02*
X182772D01*
Y72772D01*
X169228D02*
X182772D01*
X169228Y49228D02*
Y72772D01*
Y13728D02*
X182772D01*
Y37272D01*
X169228D02*
X182772D01*
X169228Y13728D02*
Y37272D01*
X19728Y13228D02*
Y26772D01*
Y13228D02*
X143272D01*
Y26772D01*
X19728D02*
X143272D01*
X169228Y83728D02*
X182772D01*
Y107272D01*
X169228D02*
X182772D01*
X169228Y83728D02*
Y107272D01*
D15*
X43503Y199999D02*
X45503D01*
X44503D01*
Y194001D01*
X43503D01*
X45503D01*
X52500Y198999D02*
X51501Y199999D01*
X49501D01*
X48502Y198999D01*
Y195001D01*
X49501Y194001D01*
X51501D01*
X52500Y195001D01*
X58499Y198999D02*
X57499Y199999D01*
X55500D01*
X54500Y198999D01*
Y198000D01*
X55500Y197000D01*
X57499D01*
X58499Y196000D01*
Y195001D01*
X57499Y194001D01*
X55500D01*
X54500Y195001D01*
X60498Y194001D02*
Y199999D01*
X63497D01*
X64497Y198999D01*
Y197000D01*
X63497Y196000D01*
X60498D01*
X13499Y121994D02*
X14499Y120994D01*
Y118994D01*
X13499Y117995D01*
X12499D01*
X11500Y118994D01*
Y119994D01*
Y118994D01*
X10500Y117995D01*
X9500D01*
X8501Y118994D01*
Y120994D01*
X9500Y121994D01*
X12499Y115996D02*
X8501Y113996D01*
X12499Y111997D01*
X13499Y109997D02*
X14499Y108998D01*
Y106998D01*
X13499Y105999D01*
X12499D01*
X11500Y106998D01*
Y107998D01*
Y106998D01*
X10500Y105999D01*
X9500D01*
X8501Y106998D01*
Y108998D01*
X9500Y109997D01*
X8501Y98001D02*
X14499D01*
Y95002D01*
X13499Y94003D01*
X11500D01*
X10500Y95002D01*
Y98001D01*
Y96002D02*
X8501Y94003D01*
Y89004D02*
Y91004D01*
X9500Y92003D01*
X11500D01*
X12499Y91004D01*
Y89004D01*
X11500Y88004D01*
X10500D01*
Y92003D01*
X6501Y84006D02*
Y83006D01*
X7501Y82007D01*
X12499D01*
Y85005D01*
X11500Y86005D01*
X9500D01*
X8501Y85005D01*
Y82007D01*
X191000Y34500D02*
X192333D01*
X191666D01*
Y38499D01*
X191000Y37832D01*
X190000Y83000D02*
X191333D01*
X190666D01*
Y86999D01*
X190000Y86332D01*
X182500Y123500D02*
X183833D01*
X183167D01*
Y127499D01*
X182500Y126832D01*
X190500Y123500D02*
X191833D01*
X191166D01*
Y127499D01*
X190500Y126832D01*
X202000Y173500D02*
Y174833D01*
Y174167D01*
X198001D01*
X198668Y173500D01*
X42500Y161500D02*
X44499D01*
X43500D01*
Y167498D01*
X42500Y166498D01*
X51501Y104501D02*
Y110499D01*
X54500D01*
X55499Y109499D01*
Y107500D01*
X54500Y106500D01*
X51501D01*
X53500D02*
X55499Y104501D01*
X122168Y36500D02*
Y39166D01*
Y37833D01*
X126167D01*
Y41165D02*
Y42498D01*
X125501Y43165D01*
X124168D01*
X123501Y42498D01*
Y41165D01*
X124168Y40499D01*
X125501D01*
X126167Y41165D01*
X123501Y45164D02*
Y46497D01*
X124168Y47163D01*
X126167D01*
Y45164D01*
X125501Y44497D01*
X124834Y45164D01*
Y47163D01*
X126167Y48496D02*
Y50495D01*
X125501Y51162D01*
X124834Y50495D01*
Y49163D01*
X124168Y48496D01*
X123501Y49163D01*
Y51162D01*
X122835Y53161D02*
X123501D01*
Y52495D01*
Y53828D01*
Y53161D01*
X125501D01*
X126167Y53828D01*
Y55827D02*
X122168D01*
X123501Y57160D01*
X122168Y58493D01*
X126167D01*
X123501Y60492D02*
Y61825D01*
X124168Y62492D01*
X126167D01*
Y60492D01*
X125501Y59826D01*
X124834Y60492D01*
Y62492D01*
X126167Y63824D02*
Y65824D01*
X125501Y66490D01*
X124834Y65824D01*
Y64491D01*
X124168Y63824D01*
X123501Y64491D01*
Y66490D01*
X122835Y68490D02*
X123501D01*
Y67823D01*
Y69156D01*
Y68490D01*
X125501D01*
X126167Y69156D01*
Y73155D02*
Y71822D01*
X125501Y71156D01*
X124168D01*
X123501Y71822D01*
Y73155D01*
X124168Y73821D01*
X124834D01*
Y71156D01*
X123501Y75154D02*
X126167D01*
X124834D01*
X124168Y75821D01*
X123501Y76487D01*
Y77153D01*
X126167Y83152D02*
Y84484D01*
Y83818D01*
X122168D01*
X122835Y83152D01*
Y86484D02*
X122168Y87150D01*
Y88483D01*
X122835Y89150D01*
X123501D01*
X124168Y88483D01*
X124834Y89150D01*
X125501D01*
X126167Y88483D01*
Y87150D01*
X125501Y86484D01*
X124834D01*
X124168Y87150D01*
X123501Y86484D01*
X122835D01*
X124168Y87150D02*
Y88483D01*
X125501Y90483D02*
X126167Y91149D01*
Y92482D01*
X125501Y93148D01*
X122835D01*
X122168Y92482D01*
Y91149D01*
X122835Y90483D01*
X123501D01*
X124168Y91149D01*
Y93148D01*
X122168Y97147D02*
Y94481D01*
X124168D01*
X123501Y95814D01*
Y96481D01*
X124168Y97147D01*
X125501D01*
X126167Y96481D01*
Y95148D01*
X125501Y94481D01*
X124168Y102479D02*
Y105145D01*
X122168Y110476D02*
X124834D01*
X126167Y111809D01*
X124834Y113142D01*
X122168D01*
Y114475D02*
X126167D01*
Y116474D01*
X125501Y117141D01*
X124834D01*
X124168Y116474D01*
Y114475D01*
Y116474D01*
X123501Y117141D01*
X122835D01*
X122168Y116474D01*
Y114475D01*
X126833Y119140D02*
X126167Y119807D01*
X125501D01*
Y119140D01*
X126167D01*
Y119807D01*
X126833Y119140D01*
X127500Y118474D01*
X126167Y126471D02*
X122168D01*
Y128470D01*
X122835Y129137D01*
X124168D01*
X124834Y128470D01*
Y126471D01*
Y127804D02*
X126167Y129137D01*
X122168Y133135D02*
Y130470D01*
X124168D01*
Y131803D01*
Y130470D01*
X126167D01*
X126833Y135135D02*
X126167Y135801D01*
X125501D01*
Y135135D01*
X126167D01*
Y135801D01*
X126833Y135135D01*
X127500Y134468D01*
X126167Y142466D02*
X122168D01*
X123501Y143799D01*
X122168Y145132D01*
X126167D01*
X122168Y146465D02*
X126167D01*
X124834D01*
X122168Y149130D01*
X124168Y147131D01*
X126167Y149130D01*
Y156461D02*
X124168Y154462D01*
X122168Y156461D01*
X122835Y158461D02*
X122168Y159127D01*
Y160460D01*
X122835Y161126D01*
X123501D01*
X124168Y160460D01*
Y159794D01*
Y160460D01*
X124834Y161126D01*
X125501D01*
X126167Y160460D01*
Y159127D01*
X125501Y158461D01*
X81500Y52499D02*
X80501Y53499D01*
X78501D01*
X77502Y52499D01*
Y48501D01*
X78501Y47501D01*
X80501D01*
X81500Y48501D01*
X87498Y47501D02*
X83500D01*
X87498Y51500D01*
Y52499D01*
X86499Y53499D01*
X84499D01*
X83500Y52499D01*
X75001Y78499D02*
X79000Y72501D01*
Y78499D02*
X75001Y72501D01*
X80999D02*
X82999D01*
X81999D01*
Y78499D01*
X80999Y77499D01*
X84500Y155999D02*
X83500Y156999D01*
X81501D01*
X80501Y155999D01*
Y152001D01*
X81501Y151001D01*
X83500D01*
X84500Y152001D01*
X86499Y151001D02*
X88499D01*
X87499D01*
Y156999D01*
X86499Y155999D01*
X97001Y163001D02*
Y168999D01*
X100000D01*
X101000Y167999D01*
Y166000D01*
X100000Y165000D01*
X97001D01*
X102999Y163001D02*
X104999D01*
X103999D01*
Y168999D01*
X102999Y167999D01*
X12499Y67495D02*
Y71494D01*
X9500D01*
X10499Y69494D01*
Y68494D01*
X9500Y67495D01*
X7500D01*
X6501Y68494D01*
Y70494D01*
X7500Y71494D01*
X10499Y65496D02*
X6501Y63496D01*
X10499Y61497D01*
X11499Y59497D02*
X12499Y58498D01*
Y56498D01*
X11499Y55499D01*
X7500D01*
X6501Y56498D01*
Y58498D01*
X7500Y59497D01*
X11499D01*
X6501Y47501D02*
X12499D01*
Y44502D01*
X11499Y43503D01*
X9500D01*
X8500Y44502D01*
Y47501D01*
Y45502D02*
X6501Y43503D01*
Y38504D02*
Y40504D01*
X7500Y41503D01*
X9500D01*
X10499Y40504D01*
Y38504D01*
X9500Y37505D01*
X8500D01*
Y41503D01*
X4501Y33506D02*
Y32506D01*
X5501Y31506D01*
X10499D01*
Y34506D01*
X9500Y35505D01*
X7500D01*
X6501Y34506D01*
Y31506D01*
X23000Y143999D02*
X22001Y144999D01*
X20001D01*
X19002Y143999D01*
Y140000D01*
X20001Y139001D01*
X22001D01*
X23000Y140000D01*
X25000Y137001D02*
Y142999D01*
X27999D01*
X28998Y142000D01*
Y140000D01*
X27999Y139001D01*
X25000D01*
X9501Y192495D02*
X15499D01*
Y189496D01*
X14499Y188496D01*
X12500D01*
X11500Y189496D01*
Y192495D01*
X13500Y186497D02*
X10501D01*
X9501Y185497D01*
X10501Y184497D01*
X9501Y183498D01*
X10501Y182498D01*
X13500D01*
Y180499D02*
X9501D01*
X11500D01*
X12500Y179499D01*
X13500Y178499D01*
Y177499D01*
X15499Y168502D02*
Y166503D01*
Y167503D01*
X9501D01*
Y168502D01*
Y166503D01*
Y163504D02*
X13500D01*
Y160505D01*
X12500Y159505D01*
X9501D01*
X106500Y199499D02*
X105501Y200499D01*
X103501D01*
X102502Y199499D01*
Y198500D01*
X103501Y197500D01*
X105501D01*
X106500Y196500D01*
Y195501D01*
X105501Y194501D01*
X103501D01*
X102502Y195501D01*
X108500Y200499D02*
Y194501D01*
X111499D01*
X112498Y195501D01*
Y199499D01*
X111499Y200499D01*
X108500D01*
X208001Y136003D02*
X213999D01*
Y140001D01*
X209001Y145999D02*
X208001Y145000D01*
Y143000D01*
X209001Y142001D01*
X212999D01*
X213999Y143000D01*
Y145000D01*
X212999Y145999D01*
X208001Y147999D02*
X213999D01*
Y150998D01*
X212999Y151997D01*
X209001D01*
X208001Y150998D01*
Y147999D01*
X157501Y126005D02*
Y122006D01*
X163499D01*
Y126005D01*
X160500Y122006D02*
Y124006D01*
X163499Y128004D02*
X159500D01*
Y131003D01*
X160500Y132003D01*
X163499D01*
X159500Y138001D02*
Y135002D01*
X160500Y134002D01*
X162499D01*
X163499Y135002D01*
Y138001D01*
Y141000D02*
Y142999D01*
X162499Y143999D01*
X160500D01*
X159500Y142999D01*
Y141000D01*
X160500Y140000D01*
X162499D01*
X163499Y141000D01*
X157501Y149997D02*
X163499D01*
Y146998D01*
X162499Y145999D01*
X160500D01*
X159500Y146998D01*
Y149997D01*
X163499Y154996D02*
Y152996D01*
X162499Y151997D01*
X160500D01*
X159500Y152996D01*
Y154996D01*
X160500Y155995D01*
X161500D01*
Y151997D01*
X159500Y157995D02*
X163499D01*
X161500D01*
X160500Y158994D01*
X159500Y159994D01*
Y160994D01*
X208501Y85504D02*
X207501Y84504D01*
Y82505D01*
X208501Y81505D01*
X209500D01*
X210500Y82505D01*
Y84504D01*
X211500Y85504D01*
X212499D01*
X213499Y84504D01*
Y82505D01*
X212499Y81505D01*
X213499Y87503D02*
Y89502D01*
Y88503D01*
X207501D01*
Y87503D01*
X213499Y92501D02*
Y94501D01*
Y93501D01*
X209500D01*
Y92501D01*
X207501Y101499D02*
X213499D01*
Y98500D01*
X212499Y97500D01*
X210500D01*
X209500Y98500D01*
Y101499D01*
X213499Y106497D02*
Y104498D01*
X212499Y103498D01*
X210500D01*
X209500Y104498D01*
Y106497D01*
X210500Y107497D01*
X211500D01*
Y103498D01*
X209500Y109496D02*
X213499D01*
X211500D01*
X210500Y110496D01*
X209500Y111495D01*
Y112495D01*
X209501Y36005D02*
X208501Y35005D01*
Y33006D01*
X209501Y32006D01*
X210501D01*
X211500Y33006D01*
Y35005D01*
X212500Y36005D01*
X213500D01*
X214499Y35005D01*
Y33006D01*
X213500Y32006D01*
X216499Y38004D02*
X210501D01*
Y41003D01*
X211500Y42003D01*
X213500D01*
X214499Y41003D01*
Y38004D01*
Y47001D02*
Y45002D01*
X213500Y44002D01*
X211500D01*
X210501Y45002D01*
Y47001D01*
X211500Y48001D01*
X212500D01*
Y44002D01*
X210501Y51000D02*
Y53000D01*
X211500Y53999D01*
X214499D01*
Y51000D01*
X213500Y50001D01*
X212500Y51000D01*
Y53999D01*
X214499Y55999D02*
X208501D01*
X212500D02*
X210501Y58998D01*
X212500Y55999D02*
X214499Y58998D01*
Y64996D02*
Y62996D01*
X213500Y61997D01*
X211500D01*
X210501Y62996D01*
Y64996D01*
X211500Y65995D01*
X212500D01*
Y61997D01*
X210501Y67995D02*
X214499D01*
X212500D01*
X211500Y68994D01*
X210501Y69994D01*
Y70994D01*
X158001Y48504D02*
X163999D01*
Y52503D01*
X158001Y58501D02*
Y54503D01*
X163999D01*
Y58501D01*
X161000Y54503D02*
Y56502D01*
X158001Y60501D02*
X163999D01*
Y63500D01*
X162999Y64499D01*
X159001D01*
X158001Y63500D01*
Y60501D01*
X163999Y76495D02*
Y72497D01*
X160000Y76495D01*
X159001D01*
X158001Y75496D01*
Y73496D01*
X159001Y72497D01*
X158501Y13004D02*
X164499D01*
Y17003D01*
X158501Y23001D02*
Y19003D01*
X164499D01*
Y23001D01*
X161500Y19003D02*
Y21002D01*
X158501Y25001D02*
X164499D01*
Y28000D01*
X163499Y28999D01*
X159501D01*
X158501Y28000D01*
Y25001D01*
X159501Y36997D02*
X158501Y37996D01*
Y39996D01*
X159501Y40995D01*
X160500D01*
X161500Y39996D01*
Y38996D01*
Y39996D01*
X162500Y40995D01*
X163499D01*
X164499Y39996D01*
Y37996D01*
X163499Y36997D01*
X46503Y36499D02*
X45504Y37499D01*
X43504D01*
X42505Y36499D01*
Y35499D01*
X43504Y34500D01*
X45504D01*
X46503Y33500D01*
Y32500D01*
X45504Y31501D01*
X43504D01*
X42505Y32500D01*
X48503Y29501D02*
Y35499D01*
X51502D01*
X52501Y34500D01*
Y32500D01*
X51502Y31501D01*
X48503D01*
X55500Y35499D02*
X57500D01*
X58499Y34500D01*
Y31501D01*
X55500D01*
X54501Y32500D01*
X55500Y33500D01*
X58499D01*
X60499Y35499D02*
Y31501D01*
Y33500D01*
X61498Y34500D01*
X62498Y35499D01*
X63498D01*
X69496Y31501D02*
X67497D01*
X66497Y32500D01*
Y34500D01*
X67497Y35499D01*
X69496D01*
X70495Y34500D01*
Y33500D01*
X66497D01*
X157001Y84504D02*
X162999D01*
Y88503D01*
X157001Y94501D02*
Y90502D01*
X162999D01*
Y94501D01*
X160000Y90502D02*
Y92502D01*
X157001Y96500D02*
X162999D01*
Y99499D01*
X161999Y100499D01*
X158001D01*
X157001Y99499D01*
Y96500D01*
X162999Y108496D02*
Y110496D01*
Y109496D01*
X157001D01*
X158001Y108496D01*
X158399Y199098D02*
X157399Y200098D01*
X155400D01*
X154400Y199098D01*
Y195100D01*
X155400Y194100D01*
X157399D01*
X158399Y195100D01*
Y197099D01*
X156399D01*
X160398Y198099D02*
Y195100D01*
X161398Y194100D01*
X164397D01*
Y193100D01*
X163397Y192101D01*
X162397D01*
X164397Y194100D02*
Y198099D01*
X166396D02*
Y194100D01*
Y196099D01*
X167396Y197099D01*
X168395Y198099D01*
X169395D01*
X173394Y194100D02*
X175393D01*
X176393Y195100D01*
Y197099D01*
X175393Y198099D01*
X173394D01*
X172394Y197099D01*
Y195100D01*
X173394Y194100D01*
X178392D02*
X182391Y198099D01*
X184390Y194100D02*
Y198099D01*
X186390Y200098D01*
X188389Y198099D01*
Y194100D01*
Y197099D01*
X184390D01*
X194387Y198099D02*
X191388D01*
X190388Y197099D01*
Y195100D01*
X191388Y194100D01*
X194387D01*
X200385Y198099D02*
X197386D01*
X196386Y197099D01*
Y195100D01*
X197386Y194100D01*
X200385D01*
X205383D02*
X203384D01*
X202384Y195100D01*
Y197099D01*
X203384Y198099D01*
X205383D01*
X206383Y197099D01*
Y196099D01*
X202384D01*
X208383Y194100D02*
X210382D01*
X209382D01*
Y200098D01*
X208383D01*
M02*
