G04*
G04 #@! TF.GenerationSoftware,Altium Limited,Altium Designer,22.9.1 (49)*
G04*
G04 Layer_Color=8388736*
%FSLAX25Y25*%
%MOIN*%
G70*
G04*
G04 #@! TF.SameCoordinates,75241AAF-32B0-4302-B227-1967B964D7D5*
G04*
G04*
G04 #@! TF.FilePolarity,Negative*
G04*
G01*
G75*
%ADD16C,0.00000*%
%ADD17R,0.06194X0.06194*%
%ADD18C,0.06194*%
%ADD19R,0.06194X0.06194*%
%ADD20R,0.07099X0.07099*%
%ADD21C,0.07099*%
%ADD22R,0.05918X0.05918*%
%ADD23C,0.05918*%
%ADD24R,0.05524X0.05524*%
%ADD25C,0.05524*%
%ADD26C,0.06706*%
%ADD27R,0.06706X0.06706*%
%ADD28R,0.07099X0.07099*%
%ADD29C,0.07178*%
%ADD30C,0.05800*%
D16*
X28890Y185000D02*
X28739Y185999D01*
X28301Y186910D01*
X27614Y187650D01*
X26739Y188156D01*
X25753Y188381D01*
X24746Y188305D01*
X23805Y187936D01*
X23015Y187306D01*
X22446Y186471D01*
X22148Y185505D01*
Y184495D01*
X22446Y183529D01*
X23015Y182694D01*
X23805Y182064D01*
X24746Y181695D01*
X25753Y181620D01*
X26739Y181844D01*
X27614Y182350D01*
X28301Y183090D01*
X28739Y184001D01*
X28890Y185000D01*
Y175000D02*
X28739Y175999D01*
X28301Y176910D01*
X27614Y177650D01*
X26739Y178156D01*
X25753Y178381D01*
X24746Y178305D01*
X23805Y177936D01*
X23015Y177306D01*
X22446Y176471D01*
X22148Y175505D01*
Y174495D01*
X22446Y173529D01*
X23015Y172694D01*
X23805Y172064D01*
X24746Y171695D01*
X25753Y171619D01*
X26739Y171844D01*
X27614Y172350D01*
X28301Y173090D01*
X28739Y174001D01*
X28890Y175000D01*
X86890Y183000D02*
X86739Y183999D01*
X86301Y184910D01*
X85614Y185650D01*
X84738Y186156D01*
X83753Y186381D01*
X82746Y186305D01*
X81805Y185936D01*
X81015Y185306D01*
X80446Y184471D01*
X80148Y183505D01*
Y182495D01*
X80446Y181529D01*
X81015Y180694D01*
X81805Y180064D01*
X82746Y179695D01*
X83753Y179620D01*
X84738Y179844D01*
X85614Y180350D01*
X86301Y181090D01*
X86739Y182001D01*
X86890Y183000D01*
X96890D02*
X96739Y183999D01*
X96301Y184910D01*
X95614Y185650D01*
X94739Y186156D01*
X93753Y186381D01*
X92746Y186305D01*
X91805Y185936D01*
X91015Y185306D01*
X90446Y184471D01*
X90148Y183505D01*
Y182495D01*
X90446Y181529D01*
X91015Y180694D01*
X91805Y180064D01*
X92746Y179695D01*
X93753Y179620D01*
X94739Y179844D01*
X95614Y180350D01*
X96301Y181090D01*
X96739Y182001D01*
X96890Y183000D01*
X106890D02*
X106739Y183999D01*
X106301Y184910D01*
X105614Y185650D01*
X104738Y186156D01*
X103753Y186381D01*
X102746Y186305D01*
X101805Y185936D01*
X101015Y185306D01*
X100446Y184471D01*
X100148Y183505D01*
Y182495D01*
X100446Y181529D01*
X101015Y180694D01*
X101805Y180064D01*
X102746Y179695D01*
X103753Y179620D01*
X104738Y179844D01*
X105614Y180350D01*
X106301Y181090D01*
X106739Y182001D01*
X106890Y183000D01*
X116890D02*
X116739Y183999D01*
X116301Y184910D01*
X115614Y185650D01*
X114739Y186156D01*
X113753Y186381D01*
X112746Y186305D01*
X111805Y185936D01*
X111015Y185306D01*
X110446Y184471D01*
X110148Y183505D01*
Y182495D01*
X110446Y181529D01*
X111015Y180694D01*
X111805Y180064D01*
X112746Y179695D01*
X113753Y179620D01*
X114739Y179844D01*
X115614Y180350D01*
X116301Y181090D01*
X116739Y182001D01*
X116890Y183000D01*
X126890D02*
X126739Y183999D01*
X126301Y184910D01*
X125614Y185650D01*
X124739Y186156D01*
X123753Y186381D01*
X122746Y186305D01*
X121805Y185936D01*
X121015Y185306D01*
X120446Y184471D01*
X120148Y183505D01*
Y182495D01*
X120446Y181529D01*
X121015Y180694D01*
X121805Y180064D01*
X122746Y179695D01*
X123753Y179620D01*
X124739Y179844D01*
X125614Y180350D01*
X126301Y181090D01*
X126739Y182001D01*
X126890Y183000D01*
X136890D02*
X136739Y183999D01*
X136301Y184910D01*
X135614Y185650D01*
X134739Y186156D01*
X133753Y186381D01*
X132746Y186305D01*
X131805Y185936D01*
X131015Y185306D01*
X130446Y184471D01*
X130148Y183505D01*
Y182495D01*
X130446Y181529D01*
X131015Y180694D01*
X131805Y180064D01*
X132746Y179695D01*
X133753Y179620D01*
X134739Y179844D01*
X135614Y180350D01*
X136301Y181090D01*
X136739Y182001D01*
X136890Y183000D01*
X179390Y56000D02*
X179239Y56999D01*
X178801Y57910D01*
X178114Y58650D01*
X177239Y59156D01*
X176253Y59381D01*
X175246Y59305D01*
X174305Y58936D01*
X173515Y58306D01*
X172946Y57471D01*
X172648Y56505D01*
Y55495D01*
X172946Y54529D01*
X173515Y53694D01*
X174305Y53064D01*
X175246Y52695D01*
X176253Y52619D01*
X177239Y52844D01*
X178114Y53350D01*
X178801Y54090D01*
X179239Y55001D01*
X179390Y56000D01*
Y66000D02*
X179239Y66999D01*
X178801Y67910D01*
X178114Y68650D01*
X177239Y69156D01*
X176253Y69380D01*
X175246Y69305D01*
X174305Y68936D01*
X173515Y68306D01*
X172946Y67471D01*
X172648Y66505D01*
Y65495D01*
X172946Y64529D01*
X173515Y63694D01*
X174305Y63064D01*
X175246Y62695D01*
X176253Y62620D01*
X177239Y62844D01*
X178114Y63350D01*
X178801Y64090D01*
X179239Y65001D01*
X179390Y66000D01*
Y20500D02*
X179239Y21499D01*
X178801Y22410D01*
X178114Y23150D01*
X177239Y23656D01*
X176253Y23880D01*
X175246Y23805D01*
X174305Y23436D01*
X173515Y22806D01*
X172946Y21971D01*
X172648Y21005D01*
Y19995D01*
X172946Y19029D01*
X173515Y18194D01*
X174305Y17564D01*
X175246Y17195D01*
X176253Y17120D01*
X177239Y17344D01*
X178114Y17850D01*
X178801Y18590D01*
X179239Y19501D01*
X179390Y20500D01*
Y30500D02*
X179239Y31499D01*
X178801Y32410D01*
X178114Y33150D01*
X177239Y33656D01*
X176253Y33880D01*
X175246Y33805D01*
X174305Y33436D01*
X173515Y32806D01*
X172946Y31971D01*
X172648Y31005D01*
Y29995D01*
X172946Y29029D01*
X173515Y28194D01*
X174305Y27564D01*
X175246Y27195D01*
X176253Y27119D01*
X177239Y27344D01*
X178114Y27850D01*
X178801Y28590D01*
X179239Y29501D01*
X179390Y30500D01*
X29890Y20000D02*
X29739Y20999D01*
X29301Y21910D01*
X28614Y22650D01*
X27738Y23156D01*
X26753Y23381D01*
X25746Y23305D01*
X24805Y22936D01*
X24015Y22306D01*
X23446Y21471D01*
X23148Y20505D01*
Y19495D01*
X23446Y18529D01*
X24015Y17694D01*
X24805Y17064D01*
X25746Y16695D01*
X26753Y16620D01*
X27738Y16844D01*
X28614Y17350D01*
X29301Y18090D01*
X29739Y19001D01*
X29890Y20000D01*
X39890D02*
X39739Y20999D01*
X39301Y21910D01*
X38614Y22650D01*
X37738Y23156D01*
X36753Y23381D01*
X35746Y23305D01*
X34805Y22936D01*
X34015Y22306D01*
X33446Y21471D01*
X33148Y20505D01*
Y19495D01*
X33446Y18529D01*
X34015Y17694D01*
X34805Y17064D01*
X35746Y16695D01*
X36753Y16620D01*
X37738Y16844D01*
X38614Y17350D01*
X39301Y18090D01*
X39739Y19001D01*
X39890Y20000D01*
X49890D02*
X49739Y20999D01*
X49301Y21910D01*
X48614Y22650D01*
X47739Y23156D01*
X46753Y23381D01*
X45746Y23305D01*
X44805Y22936D01*
X44015Y22306D01*
X43446Y21471D01*
X43148Y20505D01*
Y19495D01*
X43446Y18529D01*
X44015Y17694D01*
X44805Y17064D01*
X45746Y16695D01*
X46753Y16620D01*
X47739Y16844D01*
X48614Y17350D01*
X49301Y18090D01*
X49739Y19001D01*
X49890Y20000D01*
X59890D02*
X59739Y20999D01*
X59301Y21910D01*
X58614Y22650D01*
X57739Y23156D01*
X56753Y23381D01*
X55746Y23305D01*
X54805Y22936D01*
X54015Y22306D01*
X53446Y21471D01*
X53148Y20505D01*
Y19495D01*
X53446Y18529D01*
X54015Y17694D01*
X54805Y17064D01*
X55746Y16695D01*
X56753Y16620D01*
X57739Y16844D01*
X58614Y17350D01*
X59301Y18090D01*
X59739Y19001D01*
X59890Y20000D01*
X69890D02*
X69739Y20999D01*
X69301Y21910D01*
X68614Y22650D01*
X67738Y23156D01*
X66753Y23381D01*
X65746Y23305D01*
X64805Y22936D01*
X64015Y22306D01*
X63446Y21471D01*
X63148Y20505D01*
Y19495D01*
X63446Y18529D01*
X64015Y17694D01*
X64805Y17064D01*
X65746Y16695D01*
X66753Y16620D01*
X67738Y16844D01*
X68614Y17350D01*
X69301Y18090D01*
X69739Y19001D01*
X69890Y20000D01*
X79890D02*
X79739Y20999D01*
X79301Y21910D01*
X78614Y22650D01*
X77738Y23156D01*
X76753Y23381D01*
X75746Y23305D01*
X74805Y22936D01*
X74015Y22306D01*
X73446Y21471D01*
X73148Y20505D01*
Y19495D01*
X73446Y18529D01*
X74015Y17694D01*
X74805Y17064D01*
X75746Y16695D01*
X76753Y16620D01*
X77738Y16844D01*
X78614Y17350D01*
X79301Y18090D01*
X79739Y19001D01*
X79890Y20000D01*
X89890D02*
X89739Y20999D01*
X89301Y21910D01*
X88614Y22650D01*
X87739Y23156D01*
X86753Y23381D01*
X85746Y23305D01*
X84805Y22936D01*
X84015Y22306D01*
X83446Y21471D01*
X83148Y20505D01*
Y19495D01*
X83446Y18529D01*
X84015Y17694D01*
X84805Y17064D01*
X85746Y16695D01*
X86753Y16620D01*
X87739Y16844D01*
X88614Y17350D01*
X89301Y18090D01*
X89739Y19001D01*
X89890Y20000D01*
X99890D02*
X99739Y20999D01*
X99301Y21910D01*
X98614Y22650D01*
X97738Y23156D01*
X96753Y23381D01*
X95746Y23305D01*
X94805Y22936D01*
X94015Y22306D01*
X93446Y21471D01*
X93148Y20505D01*
Y19495D01*
X93446Y18529D01*
X94015Y17694D01*
X94805Y17064D01*
X95746Y16695D01*
X96753Y16620D01*
X97738Y16844D01*
X98614Y17350D01*
X99301Y18090D01*
X99739Y19001D01*
X99890Y20000D01*
X109890D02*
X109739Y20999D01*
X109301Y21910D01*
X108614Y22650D01*
X107738Y23156D01*
X106753Y23381D01*
X105746Y23305D01*
X104805Y22936D01*
X104015Y22306D01*
X103446Y21471D01*
X103148Y20505D01*
Y19495D01*
X103446Y18529D01*
X104015Y17694D01*
X104805Y17064D01*
X105746Y16695D01*
X106753Y16620D01*
X107738Y16844D01*
X108614Y17350D01*
X109301Y18090D01*
X109739Y19001D01*
X109890Y20000D01*
X119890D02*
X119739Y20999D01*
X119301Y21910D01*
X118614Y22650D01*
X117738Y23156D01*
X116753Y23381D01*
X115746Y23305D01*
X114805Y22936D01*
X114015Y22306D01*
X113446Y21471D01*
X113148Y20505D01*
Y19495D01*
X113446Y18529D01*
X114015Y17694D01*
X114805Y17064D01*
X115746Y16695D01*
X116753Y16620D01*
X117738Y16844D01*
X118614Y17350D01*
X119301Y18090D01*
X119739Y19001D01*
X119890Y20000D01*
X129890D02*
X129739Y20999D01*
X129301Y21910D01*
X128614Y22650D01*
X127738Y23156D01*
X126753Y23381D01*
X125746Y23305D01*
X124805Y22936D01*
X124015Y22306D01*
X123446Y21471D01*
X123148Y20505D01*
Y19495D01*
X123446Y18529D01*
X124015Y17694D01*
X124805Y17064D01*
X125746Y16695D01*
X126753Y16620D01*
X127738Y16844D01*
X128614Y17350D01*
X129301Y18090D01*
X129739Y19001D01*
X129890Y20000D01*
X139890D02*
X139739Y20999D01*
X139301Y21910D01*
X138614Y22650D01*
X137739Y23156D01*
X136753Y23381D01*
X135746Y23305D01*
X134805Y22936D01*
X134015Y22306D01*
X133446Y21471D01*
X133148Y20505D01*
Y19495D01*
X133446Y18529D01*
X134015Y17694D01*
X134805Y17064D01*
X135746Y16695D01*
X136753Y16620D01*
X137739Y16844D01*
X138614Y17350D01*
X139301Y18090D01*
X139739Y19001D01*
X139890Y20000D01*
X179390Y90500D02*
X179239Y91499D01*
X178801Y92410D01*
X178114Y93150D01*
X177239Y93656D01*
X176253Y93880D01*
X175246Y93805D01*
X174305Y93436D01*
X173515Y92806D01*
X172946Y91971D01*
X172648Y91005D01*
Y89995D01*
X172946Y89029D01*
X173515Y88194D01*
X174305Y87564D01*
X175246Y87195D01*
X176253Y87120D01*
X177239Y87344D01*
X178114Y87850D01*
X178801Y88590D01*
X179239Y89501D01*
X179390Y90500D01*
Y100500D02*
X179239Y101499D01*
X178801Y102410D01*
X178114Y103150D01*
X177239Y103656D01*
X176253Y103881D01*
X175246Y103805D01*
X174305Y103436D01*
X173515Y102806D01*
X172946Y101971D01*
X172648Y101005D01*
Y99995D01*
X172946Y99029D01*
X173515Y98194D01*
X174305Y97564D01*
X175246Y97195D01*
X176253Y97119D01*
X177239Y97344D01*
X178114Y97850D01*
X178801Y98590D01*
X179239Y99501D01*
X179390Y100500D01*
D17*
X44000Y174500D02*
D03*
X199500Y183000D02*
D03*
D18*
X44000Y184500D02*
D03*
X54000Y174500D02*
D03*
Y184500D02*
D03*
X64000Y174500D02*
D03*
Y184500D02*
D03*
X25000Y101500D02*
D03*
Y111500D02*
D03*
X199000Y136500D02*
D03*
Y146500D02*
D03*
Y156500D02*
D03*
X175000Y136500D02*
D03*
Y146500D02*
D03*
Y156500D02*
D03*
X199000Y97000D02*
D03*
Y107000D02*
D03*
Y47000D02*
D03*
Y57000D02*
D03*
Y67000D02*
D03*
X189500Y183000D02*
D03*
X179500D02*
D03*
X169500D02*
D03*
X159500D02*
D03*
D19*
X25000Y91500D02*
D03*
X199000Y126500D02*
D03*
X175000D02*
D03*
X199000Y87000D02*
D03*
Y37000D02*
D03*
D20*
X54000Y134528D02*
D03*
D21*
Y75472D02*
D03*
X26500Y63500D02*
D03*
Y53500D02*
D03*
D22*
X83500Y40500D02*
D03*
X85000Y144500D02*
D03*
X25000Y151000D02*
D03*
D23*
X83500Y60500D02*
D03*
X85000Y164500D02*
D03*
X25000Y131000D02*
D03*
D24*
X85500Y93394D02*
D03*
D25*
Y103000D02*
D03*
Y112606D02*
D03*
D26*
X140500Y35500D02*
D03*
Y45500D02*
D03*
Y55500D02*
D03*
Y65500D02*
D03*
Y75500D02*
D03*
Y85500D02*
D03*
Y95500D02*
D03*
Y105500D02*
D03*
Y115500D02*
D03*
Y125500D02*
D03*
Y135500D02*
D03*
Y145500D02*
D03*
Y155500D02*
D03*
Y165500D02*
D03*
X110500Y35500D02*
D03*
Y45500D02*
D03*
Y55500D02*
D03*
Y65500D02*
D03*
Y75500D02*
D03*
Y85500D02*
D03*
Y95500D02*
D03*
Y105500D02*
D03*
Y115500D02*
D03*
Y125500D02*
D03*
Y135500D02*
D03*
Y145500D02*
D03*
Y155500D02*
D03*
D27*
Y165500D02*
D03*
D28*
X26500Y43500D02*
D03*
D29*
X25500Y185000D02*
D03*
Y175000D02*
D03*
X83500Y183000D02*
D03*
X93500D02*
D03*
X103500D02*
D03*
X113500D02*
D03*
X123500D02*
D03*
X133500D02*
D03*
X176000Y56000D02*
D03*
Y66000D02*
D03*
Y20500D02*
D03*
Y30500D02*
D03*
X26500Y20000D02*
D03*
X36500D02*
D03*
X46500D02*
D03*
X56500D02*
D03*
X66500D02*
D03*
X76500D02*
D03*
X86500D02*
D03*
X96500D02*
D03*
X106500D02*
D03*
X116500D02*
D03*
X126500D02*
D03*
X136500D02*
D03*
X176000Y90500D02*
D03*
Y100500D02*
D03*
D30*
X48300Y61800D02*
D03*
X101600Y80900D02*
D03*
X131000Y31900D02*
D03*
X161700Y117300D02*
D03*
M02*
