M48
;Layer_Color=9474304
;FILE_FORMAT=2:4
INCH,TZ
;TYPE=PLATED
T1F00S00C0.0197
T2F00S00C0.0276
T3F00S00C0.0315
T4F00S00C0.0354
T5F00S00C0.0394
T6F00S00C0.0402
T7F00S00C0.0433
%
T01
X13100Y3190
X10160Y8090
X16170Y11730
X4830Y6180
T02
X8550Y9339
Y10300
Y11261
T03
X8350Y4050
Y6050
X8500Y14450
Y16450
X2500Y15100
Y13100
T04
X11050Y3550
Y4550
Y5550
X14050
Y4550
Y3550
Y6550
Y7550
Y8550
Y9550
Y10550
Y11550
Y12550
Y13550
Y14550
Y15550
Y16550
X11050
Y15550
Y14550
Y13550
Y12550
Y11550
Y10550
Y9550
Y8550
Y7550
Y6550
T05
X2650Y4350
Y5350
Y6350
T06
X2650Y2000
X3650
X4650
X5650
X6650
X7650
X8650
X9650
X10650
X11650
X12650
X13650
X17600Y2050
Y3050
Y5600
X19900Y4700
Y3700
Y5700
Y6700
Y8700
Y9700
Y10700
Y12650
Y13650
Y14650
Y15650
X17500
Y14650
Y13650
Y12650
X17600Y10050
Y9050
Y6600
X17950Y18300
X18950
X19950
X16950
X15950
X13350
X12350
X11350
X10350
X9350
X8350
X6400Y18450
Y17450
X5400
X4400
Y18450
X5400
X2550Y18500
Y17500
X2500Y11150
Y10150
Y9150
T07
X5400Y7547
Y13453
M30
