G04*
G04 #@! TF.GenerationSoftware,Altium Limited,Altium Designer,22.9.1 (49)*
G04*
G04 Layer_Physical_Order=2*
G04 Layer_Color=16711680*
%FSLAX25Y25*%
%MOIN*%
G70*
G04*
G04 #@! TF.SameCoordinates,75241AAF-32B0-4302-B227-1967B964D7D5*
G04*
G04*
G04 #@! TF.FilePolarity,Positive*
G04*
G01*
G75*
%ADD31C,0.01500*%
%ADD32R,0.05394X0.05394*%
%ADD33C,0.05394*%
%ADD34R,0.05394X0.05394*%
%ADD35R,0.06299X0.06299*%
%ADD36C,0.06299*%
%ADD37R,0.05118X0.05118*%
%ADD38C,0.05118*%
%ADD39R,0.04724X0.04724*%
%ADD40C,0.04724*%
%ADD41C,0.05906*%
%ADD42R,0.05906X0.05906*%
%ADD43R,0.06299X0.06299*%
%ADD44C,0.06378*%
%ADD45C,0.05000*%
D31*
X29000Y131000D02*
X42500Y144500D01*
X25000Y131000D02*
X29000D01*
X42500Y144500D02*
X85000D01*
X56500Y170253D02*
X58500Y172253D01*
Y175906D02*
X62094Y179500D01*
X58500Y172253D02*
Y175906D01*
X76000Y179500D02*
X79539Y175961D01*
X62094Y179500D02*
X76000D01*
X25500Y185000D02*
X43500D01*
X44000Y184500D01*
X54000D02*
X63500Y194000D01*
X82500D02*
X93500Y183000D01*
X63500Y194000D02*
X82500D01*
X72000Y35500D02*
X110500D01*
X56500Y20000D02*
X72000Y35500D01*
X140500Y115500D02*
X160500Y95500D01*
X199000D02*
Y97000D01*
X176000Y56000D02*
X188000D01*
X199000Y67000D01*
X140500Y165500D02*
X152000D01*
X169500Y183000D01*
X152000Y155500D02*
X179500Y183000D01*
X140500Y155500D02*
X152000D01*
X179500Y126500D02*
X199000Y107000D01*
X175000Y126500D02*
X179500D01*
X140500Y85500D02*
X148700Y77300D01*
Y61900D02*
Y77300D01*
Y61900D02*
X160800Y49800D01*
X191800D01*
X199000Y57000D01*
X44000Y174500D02*
X48247Y170253D01*
X56500D01*
X79539Y175961D02*
X131061D01*
X133500Y178400D01*
Y183000D01*
X182230Y190270D02*
X189500Y183000D01*
X128500Y190270D02*
X182230D01*
X126230Y188000D02*
X128500Y190270D01*
X126230Y185730D02*
Y188000D01*
X123500Y183000D02*
X126230Y185730D01*
X170963Y25537D02*
X176000Y20500D01*
X123539Y25537D02*
X170963D01*
X122037Y27039D02*
X123539Y25537D01*
X110955Y27039D02*
X122037D01*
X108716Y24800D02*
X110955Y27039D01*
X108716Y22216D02*
Y24800D01*
X106500Y20000D02*
X108716Y22216D01*
X86500Y20000D02*
X91239Y15261D01*
X109600D01*
X111239Y16900D01*
Y21578D01*
X114400Y24739D01*
X119200D01*
X121300Y22639D01*
Y18400D02*
Y22639D01*
Y18400D02*
X124500Y15200D01*
X202400D01*
X205600Y18400D01*
Y96500D01*
X200800Y101300D02*
X205600Y96500D01*
X192500Y101300D02*
X200800D01*
X169465Y124335D02*
X192500Y101300D01*
X158665Y124335D02*
X169465D01*
X147500Y135500D02*
X158665Y124335D01*
X140500Y135500D02*
X147500D01*
X110500Y105500D02*
X120500Y95500D01*
X140500D01*
X21800Y58800D02*
X26500Y63500D01*
X21800Y50400D02*
Y58800D01*
Y50400D02*
X23400Y48800D01*
X31200D01*
X51300Y28700D01*
Y18400D02*
Y28700D01*
Y18400D02*
X56739Y12961D01*
X114400D01*
X116500Y15061D01*
Y20000D01*
X54000Y75472D02*
X76728Y98200D01*
X103200D01*
X110500Y105500D01*
X26500Y63500D02*
X42028D01*
X54000Y75472D01*
X25000Y151000D02*
Y165200D01*
X40053Y180253D01*
X56453D01*
X60700Y184500D01*
X64000D01*
X106900Y169100D02*
X110500Y165500D01*
X69400Y169100D02*
X106900D01*
X64000Y174500D02*
X69400Y169100D01*
X48300Y61800D02*
X56600Y70100D01*
X125900D01*
X140500Y55500D01*
X135100Y80900D02*
X140500Y75500D01*
X101600Y80900D02*
X135100D01*
X135900Y160900D02*
X140500Y165500D01*
X135900Y152800D02*
Y160900D01*
Y152800D02*
X137800Y150900D01*
X143000D01*
X162400Y131500D01*
X194000D01*
X199000Y136500D01*
X85500Y93394D02*
X93394Y85500D01*
X110500D01*
X175000Y136500D02*
X185000Y146500D01*
X199000D01*
X176000Y90500D02*
X179500Y87000D01*
X199000D01*
X140500Y105500D02*
X145024D01*
X160024Y90500D01*
X176000D01*
X70500Y53500D02*
X83500Y40500D01*
X26500Y53500D02*
X70500D01*
X140500Y35500D02*
X169800D01*
X171300Y37000D01*
X199000D01*
X66500Y20000D02*
X75839Y29339D01*
X125839D01*
X127341Y27837D01*
X132837D01*
X140500Y35500D01*
X110500Y52400D02*
Y55500D01*
Y52400D02*
X131000Y31900D01*
X110500Y65500D02*
X135500Y40500D01*
X178100D01*
X178900Y41300D01*
X202400D01*
X203300Y40400D01*
Y33400D02*
Y40400D01*
X200400Y30500D02*
X203300Y33400D01*
X176000Y30500D02*
X200400D01*
X145003Y98497D02*
X176000Y66000D01*
X143000Y100500D02*
X145003Y98497D01*
X125500Y100500D02*
X143000D01*
X110500Y115500D02*
X125500Y100500D01*
X163153D02*
X176000D01*
X143153Y120500D02*
X163153Y100500D01*
X115500Y120500D02*
X143153D01*
X110500Y125500D02*
X115500Y120500D01*
X35100Y70100D02*
X110500Y145500D01*
X23200Y70100D02*
X35100D01*
X19500Y66400D02*
X23200Y70100D01*
X19500Y37000D02*
Y66400D01*
Y37000D02*
X36500Y20000D01*
X58900Y101500D02*
X107500Y150100D01*
X135100Y130100D02*
X148900D01*
X161700Y117300D01*
X25000Y101500D02*
X58900D01*
X107500Y150100D02*
X115100D01*
X115850Y149350D02*
X138300Y171800D01*
Y186400D01*
X136900Y187800D02*
X138300Y186400D01*
X130400Y187800D02*
X136900D01*
X128700Y186100D02*
X130400Y187800D01*
X128700Y180461D02*
Y186100D01*
X126500Y178261D02*
X128700Y180461D01*
X108239Y178261D02*
X126500D01*
X103500Y183000D02*
X108239Y178261D01*
X160500Y95500D02*
X199000D01*
X115100Y150100D02*
X115850Y149350D01*
X135100Y130100D01*
D32*
X44000Y174500D02*
D03*
X199500Y183000D02*
D03*
D33*
X44000Y184500D02*
D03*
X54000Y174500D02*
D03*
Y184500D02*
D03*
X64000Y174500D02*
D03*
Y184500D02*
D03*
X25000Y101500D02*
D03*
Y111500D02*
D03*
X199000Y136500D02*
D03*
Y146500D02*
D03*
Y156500D02*
D03*
X175000Y136500D02*
D03*
Y146500D02*
D03*
Y156500D02*
D03*
X199000Y97000D02*
D03*
Y107000D02*
D03*
Y47000D02*
D03*
Y57000D02*
D03*
Y67000D02*
D03*
X189500Y183000D02*
D03*
X179500D02*
D03*
X169500D02*
D03*
X159500D02*
D03*
D34*
X25000Y91500D02*
D03*
X199000Y126500D02*
D03*
X175000D02*
D03*
X199000Y87000D02*
D03*
Y37000D02*
D03*
D35*
X54000Y134528D02*
D03*
D36*
Y75472D02*
D03*
X26500Y63500D02*
D03*
Y53500D02*
D03*
D37*
X83500Y40500D02*
D03*
X85000Y144500D02*
D03*
X25000Y151000D02*
D03*
D38*
X83500Y60500D02*
D03*
X85000Y164500D02*
D03*
X25000Y131000D02*
D03*
D39*
X85500Y93394D02*
D03*
D40*
Y103000D02*
D03*
Y112606D02*
D03*
D41*
X140500Y35500D02*
D03*
Y45500D02*
D03*
Y55500D02*
D03*
Y65500D02*
D03*
Y75500D02*
D03*
Y85500D02*
D03*
Y95500D02*
D03*
Y105500D02*
D03*
Y115500D02*
D03*
Y125500D02*
D03*
Y135500D02*
D03*
Y145500D02*
D03*
Y155500D02*
D03*
Y165500D02*
D03*
X110500Y35500D02*
D03*
Y45500D02*
D03*
Y55500D02*
D03*
Y65500D02*
D03*
Y75500D02*
D03*
Y85500D02*
D03*
Y95500D02*
D03*
Y105500D02*
D03*
Y115500D02*
D03*
Y125500D02*
D03*
Y135500D02*
D03*
Y145500D02*
D03*
Y155500D02*
D03*
D42*
Y165500D02*
D03*
D43*
X26500Y43500D02*
D03*
D44*
X25500Y185000D02*
D03*
Y175000D02*
D03*
X83500Y183000D02*
D03*
X93500D02*
D03*
X103500D02*
D03*
X113500D02*
D03*
X123500D02*
D03*
X133500D02*
D03*
X176000Y56000D02*
D03*
Y66000D02*
D03*
Y20500D02*
D03*
Y30500D02*
D03*
X26500Y20000D02*
D03*
X36500D02*
D03*
X46500D02*
D03*
X56500D02*
D03*
X66500D02*
D03*
X76500D02*
D03*
X86500D02*
D03*
X96500D02*
D03*
X106500D02*
D03*
X116500D02*
D03*
X126500D02*
D03*
X136500D02*
D03*
X176000Y90500D02*
D03*
Y100500D02*
D03*
D45*
X48300Y61800D02*
D03*
X101600Y80900D02*
D03*
X131000Y31900D02*
D03*
X161700Y117300D02*
D03*
M02*
